<?xml version="1.0" encoding="UTF-8" standalone="no"?>
<!DOCTYPE svg PUBLIC "-//W3C//DTD SVG 1.1//EN" "http://www.w3.org/Graphics/SVG/1.1/DTD/svg11.dtd">
<svg width="100%" height="100%" viewBox="0 0 3840 2160" version="1.1" xmlns="http://www.w3.org/2000/svg" xmlns:xlink="http://www.w3.org/1999/xlink" xml:space="preserve" xmlns:serif="http://www.serif.com/" style="fill-rule:evenodd;clip-rule:evenodd;stroke-linejoin:round;stroke-miterlimit:1.41421;">
    <rect x="0" y="0" width="3840" height="2160" style="fill:rgb(3,0,10);"/>
    <clipPath id="_clip1">
        <rect x="0" y="0" width="3840" height="2160"/>
    </clipPath>
    <g clip-path="url(#_clip1)">
        <g transform="matrix(0.749114,0,0,0.749114,-499.831,1043.02)">
            <g id="SunCenter1" transform="matrix(1.119,0,0,1.119,874.5,1268.5)">
                <g transform="matrix(1,0,0,1,-500,-500)">
                    <circle id="Sun" cx="500" cy="500" r="500" style="fill:rgb(255,219,35);"/>
                    <clipPath id="_clip2">
                        <circle id="Sun1" serif:id="Sun" cx="500" cy="500" r="500"/>
                    </clipPath>
                    <g clip-path="url(#_clip2)">
                        <g transform="matrix(1.11111,0,0,0.972025,-46.6667,-51.1048)">
                            <path d="M118.049,249.733C372.499,299.361 618.387,284.386 860.641,241.994L855,32L144,38L118.049,249.733" style="fill-opacity:0.0980392;"/>
                        </g>
                        <g transform="matrix(1.11111,0,0,0.7415,-41.6667,122.37)">
                            <path d="M24,414L16,595C329.285,623.945 648.304,619.163 973,581L975,402C654.522,375.389 337.614,380.192 24,414Z" style="fill-opacity:0.0980392;"/>
                        </g>
                        <g transform="matrix(0.785674,0.785674,-0.785674,0.785674,506.383,-278.361)">
                            <path d="M428.321,54.48C449.125,51.527 470.385,50 492,50C740.362,50 942,251.638 942,500C942,748.362 740.362,950 492,950C470.385,950 449.125,948.473 428.321,945.52C646.572,914.55 814.641,726.747 814.641,500C814.641,273.253 646.572,85.45 428.321,54.48Z" style="fill:white;fill-opacity:0.2;"/>
                        </g>
                    </g>
                </g>
            </g>
            <g id="Atmosphere1" transform="matrix(1.409,0,0,1.409,874.5,1268.5)">
                <g transform="matrix(1,0,0,1,-500,-500)">
                    <path d="M500,0C579.201,0 797.55,90.443 853.553,146.447C909.557,202.45 1000,420.799 1000,500C1000,579.201 909.557,797.55 853.553,853.553C797.55,909.557 579.201,1000 500,1000C420.799,1000 202.45,909.557 146.447,853.553C90.443,797.55 0,579.201 0,500C0,420.799 90.443,202.45 146.447,146.447C202.45,90.443 420.799,0 500,0Z" style="fill:rgb(255,209,0);fill-opacity:0.368627;"/>
                </g>
            </g>
            <g id="Atmosphere11" serif:id="Atmosphere1" transform="matrix(1.75392,-0.482225,0.482225,1.75392,874.5,1268.5)">
                <g transform="matrix(1,0,0,1,-500,-500)">
                    <path d="M500,0C579.201,0 797.55,90.443 853.553,146.447C909.557,202.45 1000,420.799 1000,500C1000,579.201 909.557,797.55 853.553,853.553C797.55,909.557 579.201,1000 500,1000C420.799,1000 202.45,909.557 146.447,853.553C90.443,797.55 0,579.201 0,500C0,420.799 90.443,202.45 146.447,146.447C202.45,90.443 420.799,0 500,0Z" style="fill:rgb(255,209,0);fill-opacity:0.368627;"/>
                </g>
            </g>
            <g id="Atmosphere12" serif:id="Atmosphere1" transform="matrix(1.91407,-1.36047,1.36047,1.91407,874.5,1268.5)">
                <g transform="matrix(1,0,0,1,-500,-500)">
                    <clipPath id="_clip3">
                        <rect x="0" y="0" width="1000" height="1000"/>
                    </clipPath>
                    <g clip-path="url(#_clip3)">
                        <path d="M500,0C579.201,0 797.55,90.443 853.553,146.447C909.557,202.45 1000,420.799 1000,500C1000,579.201 909.557,797.55 853.553,853.553C797.55,909.557 579.201,1000 500,1000C420.799,1000 202.45,909.557 146.447,853.553C90.443,797.55 0,579.201 0,500C0,420.799 90.443,202.45 146.447,146.447C202.45,90.443 420.799,0 500,0Z" style="fill:rgb(255,209,0);fill-opacity:0.368627;"/>
                    </g>
                </g>
            </g>
        </g>
    </g>
    <g id="habitablePlanet3" transform="matrix(0.127783,-0.425604,0.425604,0.127783,1756.96,598.548)">
        <g transform="matrix(1,0,0,1,-500,-500)">
            <circle cx="500" cy="500" r="500" style="fill:rgb(0,141,230);"/>
            <clipPath id="_clip4">
                <circle cx="500" cy="500" r="500"/>
            </clipPath>
            <g clip-path="url(#_clip4)">
                <g transform="matrix(1.06762,0,0,1.06762,-55.1517,-61.79)">
                    <path d="M648.344,987.08C648.344,977.331 641.678,966.576 640.642,956.511C639.273,943.213 636.436,929.577 634.123,916.391C629.449,889.749 634.174,861.861 631.466,834.874C628.094,801.277 625.437,761.063 634.437,728.841C635.798,723.969 659.123,711.245 664.422,707.251C678.334,696.766 708.63,661.285 723.623,657.519C727.321,656.59 731.92,656.463 735.547,655.154C747.101,650.981 756.483,663.434 764.448,668.522C782.633,680.141 788.358,705.666 817.989,699.473C836.333,695.64 850.462,677.094 869.605,674.594C913.247,668.896 934.175,674.913 971.67,688.322C981.583,691.868 995.267,694.427 1002.98,702.138C911.482,870.262 795.067,970.162 648.344,987.08Z" style="fill:white;fill-opacity:0.501961;"/>
                    <clipPath id="_clip5">
                        <path d="M648.344,987.08C648.344,977.331 641.678,966.576 640.642,956.511C639.273,943.213 636.436,929.577 634.123,916.391C629.449,889.749 634.174,861.861 631.466,834.874C628.094,801.277 625.437,761.063 634.437,728.841C635.798,723.969 659.123,711.245 664.422,707.251C678.334,696.766 708.63,661.285 723.623,657.519C727.321,656.59 731.92,656.463 735.547,655.154C747.101,650.981 756.483,663.434 764.448,668.522C782.633,680.141 788.358,705.666 817.989,699.473C836.333,695.64 850.462,677.094 869.605,674.594C913.247,668.896 934.175,674.913 971.67,688.322C981.583,691.868 995.267,694.427 1002.98,702.138C911.482,870.262 795.067,970.162 648.344,987.08Z"/>
                    </clipPath>
                    <g clip-path="url(#_clip5)">
                        <g transform="matrix(0.936665,0,0,0.936665,51.6586,57.8766)">
                            <path d="M648.344,987.08C648.344,977.331 641.678,966.576 640.642,956.511C639.273,943.213 636.436,929.577 634.123,916.391C629.449,889.749 634.174,861.861 631.466,834.874C628.094,801.277 625.437,761.063 634.437,728.841C635.798,723.969 659.123,711.245 664.422,707.251C678.334,696.766 708.63,661.285 723.623,657.519C727.321,656.59 731.92,656.463 735.547,655.154C747.101,650.981 756.483,663.434 764.448,668.522C782.633,680.141 788.358,705.666 817.989,699.473C836.333,695.64 850.462,677.094 869.605,674.594C913.247,668.896 934.175,674.913 971.67,688.322C981.583,691.868 995.267,694.427 1002.98,702.138C911.482,870.262 795.067,970.162 648.344,987.08Z" style="fill:white;"/>
                        </g>
                    </g>
                </g>
                <g transform="matrix(1.08137,0,0,1.08137,-30.5671,-30.0898)">
                    <path d="M434.881,649.666C418.197,632.226 398.571,616.316 374.617,609.528C335.221,598.363 300.509,622.838 276.06,650.768C263.209,665.448 252.718,677.041 246.887,696.424C244.676,703.774 245.079,712.619 245.079,720.312C245.079,761.352 262.437,794.974 290.021,824.941C302.409,838.399 315.032,852.044 331.96,859.562C344.012,864.915 365.762,870.394 379.466,870.249C391.282,870.125 401.549,869.505 413.828,868.484C421.836,867.818 430.607,869.469 437.794,865.873C454.441,857.542 462.801,842.398 470.778,826.54C487.31,793.675 491.128,768.135 491.128,731.314C491.128,702.379 454.3,669.963 434.881,649.666Z" style="fill:rgb(6,195,34);fill-opacity:0.501961;"/>
                    <clipPath id="_clip6">
                        <path d="M434.881,649.666C418.197,632.226 398.571,616.316 374.617,609.528C335.221,598.363 300.509,622.838 276.06,650.768C263.209,665.448 252.718,677.041 246.887,696.424C244.676,703.774 245.079,712.619 245.079,720.312C245.079,761.352 262.437,794.974 290.021,824.941C302.409,838.399 315.032,852.044 331.96,859.562C344.012,864.915 365.762,870.394 379.466,870.249C391.282,870.125 401.549,869.505 413.828,868.484C421.836,867.818 430.607,869.469 437.794,865.873C454.441,857.542 462.801,842.398 470.778,826.54C487.31,793.675 491.128,768.135 491.128,731.314C491.128,702.379 454.3,669.963 434.881,649.666Z"/>
                    </clipPath>
                    <g clip-path="url(#_clip6)">
                        <g transform="matrix(0.924756,0,0,0.924756,27.6965,55.5684)">
                            <path d="M434.881,649.666C418.197,632.226 398.571,616.316 374.617,609.528C335.221,598.363 300.509,622.838 276.06,650.768C263.209,665.448 252.718,677.041 246.887,696.424C244.676,703.774 245.079,712.619 245.079,720.312C245.079,761.352 262.437,794.974 290.021,824.941C302.409,838.399 315.032,852.044 331.96,859.562C344.012,864.915 365.762,870.394 379.466,870.249C391.282,870.125 401.549,869.505 413.828,868.484C421.836,867.818 430.607,869.469 437.794,865.873C454.441,857.542 462.801,842.398 470.778,826.54C487.31,793.675 491.128,768.135 491.128,731.314C491.128,702.379 454.3,669.963 434.881,649.666Z" style="fill:rgb(6,195,34);"/>
                        </g>
                    </g>
                </g>
                <g transform="matrix(1.09076,0,0,1.09076,-47.8745,-33.9738)">
                    <path d="M317,211C390.139,153.926 710.714,180.176 787,297C831.566,365.249 772.667,487.5 716,531C659.333,574.5 523.167,571 447,558C376.245,545.924 284.167,495.833 259,453C233.833,410.167 286.333,341.333 296,301C303.18,271.043 292.714,229.952 317,211Z" style="fill:rgb(6,195,34);fill-opacity:0.501961;"/>
                    <clipPath id="_clip7">
                        <path d="M317,211C390.139,153.926 710.714,180.176 787,297C831.566,365.249 772.667,487.5 716,531C659.333,574.5 523.167,571 447,558C376.245,545.924 284.167,495.833 259,453C233.833,410.167 286.333,341.333 296,301C303.18,271.043 292.714,229.952 317,211Z"/>
                    </clipPath>
                    <g clip-path="url(#_clip7)">
                        <g transform="matrix(0.916788,0,0,0.916788,43.8908,31.1468)">
                            <path d="M317,211C390.139,153.926 710.714,180.176 787,297C831.566,365.249 772.667,487.5 716,531C659.333,574.5 523.167,571 447,558C376.245,545.924 284.167,495.833 259,453C233.833,410.167 286.333,341.333 296,301C303.18,271.043 292.714,229.952 317,211Z" style="fill:rgb(6,195,34);"/>
                        </g>
                    </g>
                </g>
                <g transform="matrix(1.23415,-0.18554,0.18554,1.23415,-861.328,-513.058)">
                    <path d="M742.761,685.983C729.12,682.506 704.552,686.535 696.814,697.348C679.31,721.811 679.424,756.583 687.287,785.025C689.609,793.425 692.692,817.162 703.513,819.854C713.309,822.291 719.331,812.366 727.543,809.417C751.647,800.761 781.381,744.024 778.662,718.208C777.103,703.417 756.402,689.459 742.761,685.983Z" style="fill:rgb(6,195,34);fill-opacity:0.501961;"/>
                    <clipPath id="_clip8">
                        <path d="M742.761,685.983C729.12,682.506 704.552,686.535 696.814,697.348C679.31,721.811 679.424,756.583 687.287,785.025C689.609,793.425 692.692,817.162 703.513,819.854C713.309,822.291 719.331,812.366 727.543,809.417C751.647,800.761 781.381,744.024 778.662,718.208C777.103,703.417 756.402,689.459 742.761,685.983Z"/>
                    </clipPath>
                    <g clip-path="url(#_clip8)">
                        <g transform="matrix(0.801271,0,0,0.801271,145.175,149.544)">
                            <path d="M742.761,685.983C729.12,682.506 704.552,686.535 696.814,697.348C679.31,721.811 679.424,756.583 687.287,785.025C689.609,793.425 692.692,817.162 703.513,819.854C713.309,822.291 719.331,812.366 727.543,809.417C751.647,800.761 781.381,744.024 778.662,718.208C777.103,703.417 756.402,689.459 742.761,685.983Z" style="fill:rgb(6,195,34);"/>
                        </g>
                    </g>
                </g>
                <g transform="matrix(1.40409,0.527768,-0.527768,1.40409,215.344,-297.128)">
                    <ellipse cx="151" cy="546.379" rx="40" ry="37.73" style="fill:rgb(6,195,34);fill-opacity:0.501961;"/>
                    <clipPath id="_clip9">
                        <ellipse cx="151" cy="546.379" rx="40" ry="37.73"/>
                    </clipPath>
                    <g clip-path="url(#_clip9)">
                        <g transform="matrix(0.666667,0,0,0.666667,50.3333,182.126)">
                            <ellipse cx="151" cy="546.379" rx="40" ry="37.73" style="fill:rgb(6,195,34);"/>
                        </g>
                    </g>
                </g>
                <g transform="matrix(0.865615,0.50071,-0.50071,0.865615,317.541,-183.17)">
                    <path d="M371.5,16.696C412.51,5.804 455.582,0 500,0C775.958,0 1000,224.042 1000,500C1000,775.958 775.958,1000 500,1000C455.582,1000 412.51,994.196 371.5,983.304C585.276,926.532 743,731.54 743,500C743,268.46 585.276,73.468 371.5,16.696Z" style="fill:rgb(116,116,116);fill-opacity:0.25098;"/>
                </g>
            </g>
        </g>
    </g>
    <g id="Atmosphere2" transform="matrix(0.573969,0,0,0.573969,1756.96,598.548)">
        <g transform="matrix(1,0,0,1,-500,-500)">
            <path d="M500,0C579.201,0 797.55,90.443 853.553,146.447C909.557,202.45 1000,420.799 1000,500C1000,579.201 909.557,797.55 853.553,853.553C797.55,909.557 579.201,1000 500,1000C420.799,1000 202.45,909.557 146.447,853.553C90.443,797.55 0,579.201 0,500C0,420.799 90.443,202.45 146.447,146.447C202.45,90.443 420.799,0 500,0Z" style="fill:white;fill-opacity:0.101961;"/>
        </g>
    </g>
    <g id="Atmosphere21" serif:id="Atmosphere2" transform="matrix(0.711696,0,0,0.711696,3057,1565)">
        <g transform="matrix(1,0,0,1,-500,-500)">
            <path d="M500,0C579.201,0 797.55,90.443 853.553,146.447C909.557,202.45 1000,420.799 1000,500C1000,579.201 909.557,797.55 853.553,853.553C797.55,909.557 579.201,1000 500,1000C420.799,1000 202.45,909.557 146.447,853.553C90.443,797.55 0,579.201 0,500C0,420.799 90.443,202.45 146.447,146.447C202.45,90.443 420.799,0 500,0Z" style="fill:white;fill-opacity:0.101961;"/>
        </g>
    </g>
    <g id="rocky2" transform="matrix(0.0442371,-0.351458,0.351458,0.0442371,456.739,519.702)">
        <g transform="matrix(1,0,0,1,-500,-500)">
            <circle cx="500" cy="500" r="500" style="fill:rgb(181,72,0);"/>
            <clipPath id="_clip10">
                <circle cx="500" cy="500" r="500"/>
            </clipPath>
            <g clip-path="url(#_clip10)">
                <g transform="matrix(1,0,0,1,51.896,77.3757)">
                    <ellipse cx="282.285" cy="317.423" rx="102.739" ry="105.201" style="fill-opacity:0.2;"/>
                </g>
                <g transform="matrix(1,0,0,1,87.9523,-25.8772)">
                    <ellipse cx="643.092" cy="292.466" rx="80.98" ry="80.245" style="fill-opacity:0.2;"/>
                </g>
                <g transform="matrix(1,0,0,0.837812,25.434,318.856)">
                    <ellipse cx="496.589" cy="528.433" rx="48.44" ry="56.874" style="fill-opacity:0.2;"/>
                </g>
                <g transform="matrix(0.643152,0,0,1,-3.30583,-106.3)">
                    <ellipse cx="249.363" cy="774.354" rx="92.29" ry="60.419" style="fill-opacity:0.2;"/>
                </g>
                <g transform="matrix(1,0,0,0.725461,48.8761,204.608)">
                    <ellipse cx="799.991" cy="592.16" rx="64.364" ry="92.16" style="fill-opacity:0.2;"/>
                </g>
                <path d="M419.5,6.459C445.709,2.209 472.599,0 500,0C775.958,0 1000,224.042 1000,500C1000,775.958 775.958,1000 500,1000C472.599,1000 445.709,997.791 419.5,993.541C657.241,954.995 839,748.556 839,500C839,251.444 657.241,45.005 419.5,6.459Z" style="fill-opacity:0.101961;"/>
            </g>
        </g>
    </g>
    <g id="rocky3" transform="matrix(0.408594,-0.0833076,0.0833076,0.408594,1701.5,1522.81)">
        <g transform="matrix(1,0,0,1,-500,-500)">
            <clipPath id="_clip11">
                <rect x="0" y="0" width="1000" height="1000"/>
            </clipPath>
            <g clip-path="url(#_clip11)">
                <circle cx="500" cy="500" r="500" style="fill:rgb(255,207,0);"/>
                <clipPath id="_clip12">
                    <circle cx="500" cy="500" r="500"/>
                </clipPath>
                <g clip-path="url(#_clip12)">
                    <path d="M428.559,5.075C451.894,1.731 475.746,0 500,0C775.958,0 1000,224.042 1000,500C1000,775.958 775.958,1000 500,1000C475.746,1000 451.894,998.269 428.559,994.925C670.727,960.217 857.118,751.704 857.118,500C857.118,248.296 670.727,39.783 428.559,5.075Z" style="fill-opacity:0.101961;"/>
                    <ellipse cx="271.881" cy="244.815" rx="61.863" ry="60.631" style="fill-opacity:0.2;"/>
                    <g transform="matrix(0.778765,0,0,0.758089,385.19,268.445)">
                        <ellipse cx="271.881" cy="244.815" rx="61.863" ry="60.631" style="fill-opacity:0.2;"/>
                    </g>
                    <g transform="matrix(1.5,0,0,1.5,268.209,391.212)">
                        <ellipse cx="271.881" cy="244.815" rx="61.863" ry="60.631" style="fill-opacity:0.2;"/>
                    </g>
                    <g transform="matrix(1.68821,0,0,1.81206,333.357,-248.042)">
                        <ellipse cx="271.881" cy="244.815" rx="61.863" ry="60.631" style="fill-opacity:0.2;"/>
                    </g>
                    <g transform="matrix(1.36787,0,0,1.32166,-122.774,324.425)">
                        <ellipse cx="271.881" cy="244.815" rx="61.863" ry="60.631" style="fill-opacity:0.2;"/>
                    </g>
                </g>
            </g>
        </g>
    </g>
    <g id="rocky1" transform="matrix(0.424463,-0.184933,0.184933,0.424463,2948.5,446.93)">
        <g transform="matrix(1,0,0,1,-500,-500)">
            <circle cx="500" cy="500" r="500" style="fill:rgb(220,61,51);"/>
            <clipPath id="_clip13">
                <circle cx="500" cy="500" r="500"/>
            </clipPath>
            <g clip-path="url(#_clip13)">
                <path d="M419.5,6.459C445.709,2.209 472.599,0 500,0C775.958,0 1000,224.042 1000,500C1000,775.958 775.958,1000 500,1000C472.599,1000 445.709,997.791 419.5,993.541C657.241,954.995 839,748.556 839,500C839,251.444 657.241,45.005 419.5,6.459Z" style="fill-opacity:0.101961;"/>
                <g transform="matrix(0.892857,0,0,0.931677,18.6429,16.6025)">
                    <ellipse cx="258" cy="323.5" rx="84" ry="80.5" style="fill-opacity:0.192157;"/>
                </g>
                <g transform="matrix(1.49879,0,0,1.57567,71.2312,83.7381)">
                    <ellipse cx="258" cy="323.5" rx="84" ry="80.5" style="fill-opacity:0.192157;"/>
                </g>
                <g transform="matrix(0.874601,0,0,0.879465,399.289,-70.9657)">
                    <ellipse cx="258" cy="323.5" rx="84" ry="80.5" style="fill-opacity:0.192157;"/>
                </g>
                <g transform="matrix(0.874601,0,0,0.879465,595.862,223.56)">
                    <ellipse cx="258" cy="323.5" rx="84" ry="80.5" style="fill-opacity:0.192157;"/>
                </g>
            </g>
        </g>
    </g>
    <g id="Gas2" transform="matrix(0.627869,-0.0128275,0.0128275,0.627869,3057,1565)">
        <g transform="matrix(1,0,0,1,-500,-500)">
            <clipPath id="_clip14">
                <rect x="0" y="0" width="1000" height="1000"/>
            </clipPath>
            <g clip-path="url(#_clip14)">
                <g transform="matrix(1.08002,0,0,1.01398,0,0)">
                    <ellipse cx="462.956" cy="493.107" rx="462.956" ry="493.107" style="fill:rgb(98,168,234);"/>
                    <clipPath id="_clip15">
                        <ellipse cx="462.956" cy="493.107" rx="462.956" ry="493.107"/>
                    </clipPath>
                    <g clip-path="url(#_clip15)">
                        <g transform="matrix(-1,-1.3044e-16,1.14977e-16,-1,925.911,1014.82)">
                            <g transform="matrix(1.37695,0,0,1.47707,-238.892,55.2169)">
                                <ellipse cx="505.8" cy="-3.345" rx="340.131" ry="109.147" style="fill:rgb(0,120,231);fill-opacity:0.670588;"/>
                            </g>
                            <g transform="matrix(2.22005,0,0,1.91202,-684.949,27.5355)">
                                <ellipse cx="517.063" cy="-7.506" rx="208.534" ry="76.308" style="fill:rgb(0,49,228);fill-opacity:0.345098;"/>
                            </g>
                            <g transform="matrix(2.22005,0,0,1.91202,-684.949,-65.7995)">
                                <ellipse cx="517.063" cy="-7.506" rx="208.534" ry="76.308" style="fill-opacity:0.345098;"/>
                            </g>
                            <g transform="matrix(2.22005,0,0,1.91202,-684.949,-19.132)">
                                <ellipse cx="517.063" cy="-7.506" rx="208.534" ry="76.308" style="fill:rgb(3,58,255);fill-opacity:0.345098;"/>
                            </g>
                        </g>
                        <g transform="matrix(1,0,4.93038e-32,1,19.6983,7.2796)">
                            <g transform="matrix(1.37695,0,0,1.47707,-238.892,55.2169)">
                                <ellipse cx="505.8" cy="-3.345" rx="340.131" ry="109.147" style="fill:rgb(0,120,231);fill-opacity:0.670588;"/>
                            </g>
                            <g transform="matrix(2.22005,0,0,1.91202,-684.949,27.5355)">
                                <ellipse cx="517.063" cy="-7.506" rx="208.534" ry="76.308" style="fill:rgb(0,49,228);fill-opacity:0.345098;"/>
                            </g>
                            <g transform="matrix(2.22005,0,0,1.91202,-684.949,-65.7995)">
                                <ellipse cx="517.063" cy="-7.506" rx="208.534" ry="76.308" style="fill-opacity:0.345098;"/>
                            </g>
                            <g transform="matrix(2.22005,0,0,1.91202,-684.949,-19.132)">
                                <ellipse cx="517.063" cy="-7.506" rx="208.534" ry="76.308" style="fill:rgb(3,58,255);fill-opacity:0.345098;"/>
                            </g>
                        </g>
                        <g transform="matrix(2.10905,0,0,0.986214,-605.621,-3.53019)">
                            <ellipse cx="506.662" cy="537.368" rx="594.561" ry="86.141" style="fill:rgb(0,113,218);fill-opacity:0.231373;"/>
                            <clipPath id="_clip16">
                                <ellipse cx="506.662" cy="537.368" rx="594.561" ry="86.141"/>
                            </clipPath>
                            <g clip-path="url(#_clip16)">
                                <g transform="matrix(1,0,0,1,0,-59.7888)">
                                    <ellipse cx="506.662" cy="537.368" rx="594.561" ry="86.141" style="fill:rgb(0,89,172);fill-opacity:0.231373;"/>
                                </g>
                            </g>
                        </g>
                        <g transform="matrix(0.841264,0,0,0.896053,46.8863,460.904)">
                            <ellipse cx="780.245" cy="271.786" rx="42.124" ry="44.105" style="fill:rgb(11,91,166);fill-opacity:0.345098;"/>
                        </g>
                        <g transform="matrix(0.925911,0,0,0.986214,0,0)">
                            <path d="M794.401,741.995C1191.13,792.927 1482.61,960.925 1482.61,1160.08C1482.61,1167.22 1482.24,1174.32 1481.5,1181.38C1457.4,951.766 1045.66,768.756 542,768.756C502.4,768.756 463.368,769.887 425.048,772.084C399.928,788.192 351.844,802.138 295.836,807.743C248.308,812.5 205.183,810.238 176.217,802.839C-148.022,866.108 -379.604,1010.9 -397.497,1181.38C-398.238,1174.32 -398.613,1167.22 -398.613,1160.08C-398.613,986.66 -177.593,836.863 141.482,767.417C154.391,745.493 213.853,724.076 286.733,716.782C348,710.65 401.951,716.181 427.687,729.347C465.159,727.248 503.308,726.168 542,726.168C600.684,726.168 658.119,728.653 713.839,733.406C720.93,750.671 737.327,762.773 756.403,762.773C772.126,762.773 786.028,754.552 794.401,741.995ZM286.845,740.708C336.118,736.244 376.863,740.805 377.777,750.889C378.691,760.973 339.429,772.784 290.155,777.249C240.882,781.714 200.137,777.152 199.223,767.068C198.309,756.984 237.571,745.173 286.845,740.708Z" style="fill:rgb(0,120,231);fill-opacity:0.345098;"/>
                        </g>
                        <g transform="matrix(0.925911,0,0,0.986214,-8.42112e-13,0)">
                            <path d="M428.559,5.075C451.894,1.731 475.746,0 500,0C775.958,0 1000,224.042 1000,500C1000,775.958 775.958,1000 500,1000C475.746,1000 451.894,998.269 428.559,994.925C670.727,960.217 857.118,751.704 857.118,500C857.118,248.296 670.727,39.783 428.559,5.075Z" style="fill-opacity:0.101961;"/>
                        </g>
                        <g transform="matrix(1,0,0,1,-1.57896e-13,-11.8346)">
                            <g transform="matrix(0.914666,0.153235,-0.143866,0.974236,53.4957,-40.8694)">
                                <ellipse cx="231.114" cy="340.908" rx="129.114" ry="47.405" style="fill:rgb(0,120,231);fill-opacity:0.670588;"/>
                            </g>
                            <g transform="matrix(0.925911,0,0,0.986214,0,0)">
                                <path d="M388.223,335.907C456.764,341.988 527.918,345.19 600.887,345.19C1137.36,345.19 1575.68,172.076 1599.38,-44.81C1600.05,-38.677 1600.39,-32.51 1600.39,-26.31C1600.39,199.148 1152.53,382.19 600.887,382.19C525.792,382.19 452.62,378.798 382.239,372.368C388.58,367.463 392.506,361.744 393.518,355.308C394.515,348.969 392.609,342.424 388.223,335.907ZM91.885,325.251C-201.667,254.055 -398.613,123.199 -398.613,-26.31C-398.613,-32.51 -398.274,-38.677 -397.604,-44.81C-381.984,98.129 -186.275,222.055 98.931,289.944C92.466,294.885 88.465,300.66 87.441,307.166C86.511,313.078 88.107,319.171 91.885,325.251Z" style="fill:rgb(0,120,231);fill-opacity:0.670588;"/>
                            </g>
                        </g>
                    </g>
                </g>
            </g>
        </g>
    </g>
</svg>
