<?xml version="1.0" encoding="UTF-8" standalone="no"?>
<!DOCTYPE svg PUBLIC "-//W3C//DTD SVG 1.1//EN" "http://www.w3.org/Graphics/SVG/1.1/DTD/svg11.dtd">
<svg width="100%" height="100%" viewBox="0 0 1000 1000" version="1.1" xmlns="http://www.w3.org/2000/svg" xmlns:xlink="http://www.w3.org/1999/xlink" xml:space="preserve" xmlns:serif="http://www.serif.com/" style="fill-rule:evenodd;clip-rule:evenodd;stroke-linejoin:round;stroke-miterlimit:1.41421;">
    <circle cx="500" cy="500" r="500" style="fill:rgb(0,141,230);"/>
    <clipPath id="_clip1">
        <circle cx="500" cy="500" r="500"/>
    </clipPath>
    <g clip-path="url(#_clip1)">
        <g transform="matrix(1.06762,0,0,1.06762,-55.1517,-61.79)">
            <path d="M648.344,987.08C648.344,977.331 641.678,966.576 640.642,956.511C639.273,943.213 636.436,929.577 634.123,916.391C629.449,889.749 634.174,861.861 631.466,834.874C628.094,801.277 625.437,761.063 634.437,728.841C635.798,723.969 659.123,711.245 664.422,707.251C678.334,696.766 708.63,661.285 723.623,657.519C727.321,656.59 731.92,656.463 735.547,655.154C747.101,650.981 756.483,663.434 764.448,668.522C782.633,680.141 788.358,705.666 817.989,699.473C836.333,695.64 850.462,677.094 869.605,674.594C913.247,668.896 934.175,674.913 971.67,688.322C981.583,691.868 995.267,694.427 1002.98,702.138C911.482,870.262 795.067,970.162 648.344,987.08Z" style="fill:white;fill-opacity:0.501961;"/>
            <clipPath id="_clip2">
                <path d="M648.344,987.08C648.344,977.331 641.678,966.576 640.642,956.511C639.273,943.213 636.436,929.577 634.123,916.391C629.449,889.749 634.174,861.861 631.466,834.874C628.094,801.277 625.437,761.063 634.437,728.841C635.798,723.969 659.123,711.245 664.422,707.251C678.334,696.766 708.63,661.285 723.623,657.519C727.321,656.59 731.92,656.463 735.547,655.154C747.101,650.981 756.483,663.434 764.448,668.522C782.633,680.141 788.358,705.666 817.989,699.473C836.333,695.64 850.462,677.094 869.605,674.594C913.247,668.896 934.175,674.913 971.67,688.322C981.583,691.868 995.267,694.427 1002.98,702.138C911.482,870.262 795.067,970.162 648.344,987.08Z"/>
            </clipPath>
            <g clip-path="url(#_clip2)">
                <g transform="matrix(0.936665,0,0,0.936665,51.6586,57.8766)">
                    <path d="M648.344,987.08C648.344,977.331 641.678,966.576 640.642,956.511C639.273,943.213 636.436,929.577 634.123,916.391C629.449,889.749 634.174,861.861 631.466,834.874C628.094,801.277 625.437,761.063 634.437,728.841C635.798,723.969 659.123,711.245 664.422,707.251C678.334,696.766 708.63,661.285 723.623,657.519C727.321,656.59 731.92,656.463 735.547,655.154C747.101,650.981 756.483,663.434 764.448,668.522C782.633,680.141 788.358,705.666 817.989,699.473C836.333,695.64 850.462,677.094 869.605,674.594C913.247,668.896 934.175,674.913 971.67,688.322C981.583,691.868 995.267,694.427 1002.98,702.138C911.482,870.262 795.067,970.162 648.344,987.08Z" style="fill:white;"/>
                </g>
            </g>
        </g>
        <g transform="matrix(1.08137,0,0,1.08137,-30.5671,-30.0898)">
            <path d="M434.881,649.666C418.197,632.226 398.571,616.316 374.617,609.528C335.221,598.363 300.509,622.838 276.06,650.768C263.209,665.448 252.718,677.041 246.887,696.424C244.676,703.774 245.079,712.619 245.079,720.312C245.079,761.352 262.437,794.974 290.021,824.941C302.409,838.399 315.032,852.044 331.96,859.562C344.012,864.915 365.762,870.394 379.466,870.249C391.282,870.125 401.549,869.505 413.828,868.484C421.836,867.818 430.607,869.469 437.794,865.873C454.441,857.542 462.801,842.398 470.778,826.54C487.31,793.675 491.128,768.135 491.128,731.314C491.128,702.379 454.3,669.963 434.881,649.666Z" style="fill:rgb(6,195,34);fill-opacity:0.501961;"/>
            <clipPath id="_clip3">
                <path d="M434.881,649.666C418.197,632.226 398.571,616.316 374.617,609.528C335.221,598.363 300.509,622.838 276.06,650.768C263.209,665.448 252.718,677.041 246.887,696.424C244.676,703.774 245.079,712.619 245.079,720.312C245.079,761.352 262.437,794.974 290.021,824.941C302.409,838.399 315.032,852.044 331.96,859.562C344.012,864.915 365.762,870.394 379.466,870.249C391.282,870.125 401.549,869.505 413.828,868.484C421.836,867.818 430.607,869.469 437.794,865.873C454.441,857.542 462.801,842.398 470.778,826.54C487.31,793.675 491.128,768.135 491.128,731.314C491.128,702.379 454.3,669.963 434.881,649.666Z"/>
            </clipPath>
            <g clip-path="url(#_clip3)">
                <g transform="matrix(0.924756,0,0,0.924756,27.6965,55.5684)">
                    <path d="M434.881,649.666C418.197,632.226 398.571,616.316 374.617,609.528C335.221,598.363 300.509,622.838 276.06,650.768C263.209,665.448 252.718,677.041 246.887,696.424C244.676,703.774 245.079,712.619 245.079,720.312C245.079,761.352 262.437,794.974 290.021,824.941C302.409,838.399 315.032,852.044 331.96,859.562C344.012,864.915 365.762,870.394 379.466,870.249C391.282,870.125 401.549,869.505 413.828,868.484C421.836,867.818 430.607,869.469 437.794,865.873C454.441,857.542 462.801,842.398 470.778,826.54C487.31,793.675 491.128,768.135 491.128,731.314C491.128,702.379 454.3,669.963 434.881,649.666Z" style="fill:rgb(6,195,34);"/>
                </g>
            </g>
        </g>
        <g transform="matrix(1.09076,0,0,1.09076,-47.8745,-33.9738)">
            <path d="M317,211C390.139,153.926 710.714,180.176 787,297C831.566,365.249 772.667,487.5 716,531C659.333,574.5 523.167,571 447,558C376.245,545.924 284.167,495.833 259,453C233.833,410.167 286.333,341.333 296,301C303.18,271.043 292.714,229.952 317,211Z" style="fill:rgb(6,195,34);fill-opacity:0.501961;"/>
            <clipPath id="_clip4">
                <path d="M317,211C390.139,153.926 710.714,180.176 787,297C831.566,365.249 772.667,487.5 716,531C659.333,574.5 523.167,571 447,558C376.245,545.924 284.167,495.833 259,453C233.833,410.167 286.333,341.333 296,301C303.18,271.043 292.714,229.952 317,211Z"/>
            </clipPath>
            <g clip-path="url(#_clip4)">
                <g transform="matrix(0.916788,0,0,0.916788,43.8908,31.1468)">
                    <path d="M317,211C390.139,153.926 710.714,180.176 787,297C831.566,365.249 772.667,487.5 716,531C659.333,574.5 523.167,571 447,558C376.245,545.924 284.167,495.833 259,453C233.833,410.167 286.333,341.333 296,301C303.18,271.043 292.714,229.952 317,211Z" style="fill:rgb(6,195,34);"/>
                </g>
            </g>
        </g>
        <g transform="matrix(1.23415,-0.18554,0.18554,1.23415,-861.328,-513.058)">
            <path d="M742.761,685.983C729.12,682.506 704.552,686.535 696.814,697.348C679.31,721.811 679.424,756.583 687.287,785.025C689.609,793.425 692.692,817.162 703.513,819.854C713.309,822.291 719.331,812.366 727.543,809.417C751.647,800.761 781.381,744.024 778.662,718.208C777.103,703.417 756.402,689.459 742.761,685.983Z" style="fill:rgb(6,195,34);fill-opacity:0.501961;"/>
            <clipPath id="_clip5">
                <path d="M742.761,685.983C729.12,682.506 704.552,686.535 696.814,697.348C679.31,721.811 679.424,756.583 687.287,785.025C689.609,793.425 692.692,817.162 703.513,819.854C713.309,822.291 719.331,812.366 727.543,809.417C751.647,800.761 781.381,744.024 778.662,718.208C777.103,703.417 756.402,689.459 742.761,685.983Z"/>
            </clipPath>
            <g clip-path="url(#_clip5)">
                <g transform="matrix(0.801271,0,0,0.801271,145.175,149.544)">
                    <path d="M742.761,685.983C729.12,682.506 704.552,686.535 696.814,697.348C679.31,721.811 679.424,756.583 687.287,785.025C689.609,793.425 692.692,817.162 703.513,819.854C713.309,822.291 719.331,812.366 727.543,809.417C751.647,800.761 781.381,744.024 778.662,718.208C777.103,703.417 756.402,689.459 742.761,685.983Z" style="fill:rgb(6,195,34);"/>
                </g>
            </g>
        </g>
        <g transform="matrix(1.40409,0.527768,-0.527768,1.40409,215.344,-297.128)">
            <ellipse cx="151" cy="546.379" rx="40" ry="37.73" style="fill:rgb(6,195,34);fill-opacity:0.501961;"/>
            <clipPath id="_clip6">
                <ellipse cx="151" cy="546.379" rx="40" ry="37.73"/>
            </clipPath>
            <g clip-path="url(#_clip6)">
                <g transform="matrix(0.666667,0,0,0.666667,50.3333,182.126)">
                    <ellipse cx="151" cy="546.379" rx="40" ry="37.73" style="fill:rgb(6,195,34);"/>
                </g>
            </g>
        </g>
        <g transform="matrix(0.865615,0.50071,-0.50071,0.865615,317.541,-183.17)">
            <path d="M371.5,16.696C412.51,5.804 455.582,0 500,0C775.958,0 1000,224.042 1000,500C1000,775.958 775.958,1000 500,1000C455.582,1000 412.51,994.196 371.5,983.304C585.276,926.532 743,731.54 743,500C743,268.46 585.276,73.468 371.5,16.696Z" style="fill:rgb(116,116,116);fill-opacity:0.25098;"/>
        </g>
    </g>
</svg>
