<?xml version="1.0" encoding="UTF-8" standalone="no"?>
<svg
   xmlns:dc="http://purl.org/dc/elements/1.1/"
   xmlns:cc="http://creativecommons.org/ns#"
   xmlns:rdf="http://www.w3.org/1999/02/22-rdf-syntax-ns#"
   xmlns:svg="http://www.w3.org/2000/svg"
   xmlns="http://www.w3.org/2000/svg"
   viewBox="0 0 1333.3333 1333.3333"
   height="1333.3333"
   width="1333.3333"
   xml:space="preserve"
   id="svg502"
   version="1.1"><title
     id="title584">Habitital_Planet 0</title><metadata
     id="metadata508"><rdf:RDF><cc:Work
         rdf:about=""><dc:format>image/svg+xml</dc:format><dc:type
           rdf:resource="http://purl.org/dc/dcmitype/StillImage" /><dc:title>Habitital_Planet 0</dc:title></cc:Work></rdf:RDF></metadata><defs
     id="defs506"><clipPath
       id="clipPath520"
       clipPathUnits="userSpaceOnUse"><path
         style="clip-rule:evenodd"
         id="path518"
         d="m 500,1000 c 275.958,0 500,-224.042 500,-500 C 1000,224.042 775.958,0 500,0 224.042,0 0,224.042 0,500 c 0,275.958 224.042,500 500,500 z" /></clipPath><clipPath
       id="clipPath530"
       clipPathUnits="userSpaceOnUse"><path
         style="clip-rule:evenodd"
         id="path528"
         d="m 637.031,7.9666 c 0,10.4083 -7.116,21.8898 -8.222,32.6355 -1.462,14.1973 -4.49,28.755 -6.96,42.8329 -4.991,28.444 0.054,58.217 -2.837,87.03 -3.6,35.868 -6.436,78.801 3.173,113.202 1.452,5.201 26.354,18.786 32.012,23.05 14.853,11.193 47.197,49.074 63.203,53.095 3.949,0.992 8.859,1.126 12.731,2.525 12.335,4.454 22.352,-8.84 30.855,-14.273 19.415,-12.404 25.527,-39.655 57.162,-33.044 19.584,4.093 34.669,23.893 55.106,26.562 46.593,6.083 68.935,-0.34 108.966,-14.657 10.583,-3.785 25.19,-6.518 33.42,-14.75 C 917.962,132.683 793.676,26.0285 637.031,7.9666 Z" /></clipPath><clipPath
       id="clipPath542"
       clipPathUnits="userSpaceOnUse"><path
         style="clip-rule:evenodd"
         id="path540"
         d="m 439.699,327.563 c -18.042,18.859 -39.265,36.063 -65.168,43.404 C 331.93,383.04 294.393,356.574 267.955,326.372 254.058,310.497 242.714,297.96 236.408,277 c -2.391,-7.948 -1.955,-17.513 -1.955,-25.832 0,-44.379 18.77,-80.736 48.599,-113.142 13.396,-14.552 27.046,-29.307 45.352,-37.438 13.032,-5.7881 36.551,-11.7128 51.37,-11.5565 12.778,0.1348 23.881,0.8044 37.158,1.9087 8.66,0.7203 18.145,-1.0648 25.916,2.8241 18.003,9.0087 27.043,25.3847 35.669,42.5327 17.876,35.539 22.005,63.157 22.005,102.974 0,31.29 -39.825,66.343 -60.823,88.292 z" /></clipPath><clipPath
       id="clipPath554"
       clipPathUnits="userSpaceOnUse"><path
         style="clip-rule:evenodd"
         id="path552"
         d="m 297.898,803.823 c 79.778,62.253 429.449,33.621 512.659,-93.806 C 859.168,635.573 794.923,502.226 733.113,454.778 671.303,407.33 522.777,411.147 439.697,425.327 362.52,438.5 262.084,493.136 234.633,539.858 c -27.45,46.721 29.815,121.802 40.359,165.796 7.831,32.676 -3.585,77.497 22.906,98.169 z" /></clipPath><clipPath
       id="clipPath566"
       clipPathUnits="userSpaceOnUse"><path
         style="clip-rule:evenodd"
         id="path564"
         d="m 182.627,804.266 c -17.48,1.759 -47.053,-7.771 -54.596,-22.552 -17.064,-33.439 -10.473,-76.331 4.509,-109.974 4.425,-9.936 12.634,-38.659 26.488,-39.974 12.542,-1.19 18.132,12.177 27.72,17.34 28.141,15.155 54.311,90.694 46.165,122.05 -4.668,17.966 -32.806,31.35 -50.286,33.11 z" /></clipPath><clipPath
       id="clipPath578"
       clipPathUnits="userSpaceOnUse"><path
         style="clip-rule:evenodd"
         id="path576"
         d="m 158.913,503.248 c 30.997,-11.651 47.241,-44.848 36.25,-74.087 -10.99,-29.239 -45.078,-43.517 -76.076,-31.866 -30.9973,11.651 -47.2407,44.849 -36.2505,74.087 10.9902,29.239 45.0785,43.518 76.0765,31.866 z" /></clipPath></defs><g
     transform="matrix(1.3333333,0,0,-1.3333333,0,1333.3333)"
     id="g510"><path
       id="path512"
       style="fill:#0077e0;fill-opacity:1;fill-rule:evenodd;stroke:none"
       d="m 500,1000 c 275.958,0 500,-224.042 500,-500 C 1000,224.042 775.958,0 500,0 224.042,0 0,224.042 0,500 c 0,275.958 224.042,500 500,500 z" /><g
       id="g514"><g
         clip-path="url(#clipPath520)"
         id="g516"><path
           id="path522"
           style="fill:#ffffff;fill-opacity:0.5;fill-rule:evenodd;stroke:none"
           d="m 637.031,7.9666 c 0,10.4083 -7.116,21.8898 -8.222,32.6355 -1.462,14.1973 -4.49,28.755 -6.96,42.8329 -4.991,28.444 0.054,58.217 -2.837,87.03 -3.6,35.868 -6.436,78.801 3.173,113.202 1.452,5.201 26.354,18.786 32.012,23.05 14.853,11.193 47.197,49.074 63.203,53.095 3.949,0.992 8.859,1.126 12.731,2.525 12.335,4.454 22.352,-8.84 30.855,-14.273 19.415,-12.404 25.527,-39.655 57.162,-33.044 19.584,4.093 34.669,23.893 55.106,26.562 46.593,6.083 68.935,-0.34 108.966,-14.657 10.583,-3.785 25.19,-6.518 33.42,-14.75 C 917.962,132.683 793.676,26.0285 637.031,7.9666 Z" /><g
           id="g524"><g
             clip-path="url(#clipPath530)"
             id="g526"><path
               id="path532"
               style="fill:#ffffff;fill-opacity:1;fill-rule:evenodd;stroke:none"
               d="m 648.344,12.9202 c 0,9.7491 -6.666,20.5035 -7.702,30.5686 -1.369,13.2981 -4.206,26.9338 -6.519,40.1201 -4.674,26.6421 0.051,54.5301 -2.657,81.5171 -3.372,33.597 -6.029,73.811 2.971,106.033 1.361,4.872 24.686,17.596 29.985,21.59 13.912,10.485 44.208,45.966 59.201,49.732 3.698,0.929 8.297,1.056 11.924,2.365 11.554,4.173 20.936,-8.28 28.901,-13.368 18.185,-11.619 23.91,-37.144 53.541,-30.951 18.344,3.833 32.473,22.379 51.616,24.879 43.642,5.698 64.57,-0.319 102.065,-13.728 9.913,-3.546 23.597,-6.105 31.31,-13.816 C 911.482,129.738 795.067,29.8382 648.344,12.9202 Z" /></g></g><path
           id="path534"
           style="fill:#1abb1a;fill-opacity:0.5;fill-rule:evenodd;stroke:none"
           d="m 439.699,327.563 c -18.042,18.859 -39.265,36.063 -65.168,43.404 C 331.93,383.04 294.393,356.574 267.955,326.372 254.058,310.497 242.714,297.96 236.408,277 c -2.391,-7.948 -1.955,-17.513 -1.955,-25.832 0,-44.379 18.77,-80.736 48.599,-113.142 13.396,-14.552 27.046,-29.307 45.352,-37.438 13.032,-5.7881 36.551,-11.7128 51.37,-11.5565 12.778,0.1348 23.881,0.8044 37.158,1.9087 8.66,0.7203 18.145,-1.0648 25.916,2.8241 18.003,9.0087 27.043,25.3847 35.669,42.5327 17.876,35.539 22.005,63.157 22.005,102.974 0,31.29 -39.825,66.343 -60.823,88.292 z" /><g
           id="g536"><g
             clip-path="url(#clipPath542)"
             id="g538"><path
               id="path544"
               style="fill:#1abb1a;fill-opacity:1;fill-rule:evenodd;stroke:none"
               d="m 434.264,320.334 c -16.684,17.44 -36.31,33.35 -60.264,40.138 -39.396,11.165 -74.108,-13.31 -98.557,-41.24 -12.852,-14.68 -23.342,-26.273 -29.173,-45.656 -2.211,-7.35 -1.808,-16.195 -1.808,-23.888 0,-41.04 17.358,-74.662 44.942,-104.629 12.388,-13.458 25.011,-27.103 41.939,-34.621 12.052,-5.353 33.802,-10.8318 47.506,-10.6873 11.816,0.1246 22.083,0.7443 34.362,1.7653 8.008,0.666 16.779,-0.985 23.966,2.611 16.647,8.331 25.007,23.475 32.984,39.333 16.532,32.865 20.35,58.405 20.35,95.226 0,28.935 -36.828,61.351 -56.247,81.648 z" /></g></g><path
           id="path546"
           style="fill:#1abb1a;fill-opacity:0.5;fill-rule:evenodd;stroke:none"
           d="m 297.898,803.823 c 79.778,62.253 429.449,33.621 512.659,-93.806 C 859.168,635.573 794.923,502.226 733.113,454.778 671.303,407.33 522.777,411.147 439.697,425.327 362.52,438.5 262.084,493.136 234.633,539.858 c -27.45,46.721 29.815,121.802 40.359,165.796 7.831,32.676 -3.585,77.497 22.906,98.169 z" /><g
           id="g548"><g
             clip-path="url(#clipPath554)"
             id="g550"><path
               id="path556"
               style="fill:#1abb1a;fill-opacity:1;fill-rule:evenodd;stroke:none"
               d="m 317,789 c 73.139,57.074 393.714,30.824 470,-86 44.566,-68.249 -14.333,-190.5 -71,-234 -56.667,-43.5 -192.833,-40 -269,-27 -70.755,12.076 -162.833,62.167 -188,105 -25.167,42.833 27.333,111.667 37,152 7.18,29.957 -3.286,71.048 21,90 z" /></g></g><path
           id="path558"
           style="fill:#1abb1a;fill-opacity:0.5;fill-rule:evenodd;stroke:none"
           d="m 182.627,804.266 c -17.48,1.759 -47.053,-7.771 -54.596,-22.552 -17.064,-33.439 -10.473,-76.331 4.509,-109.974 4.425,-9.936 12.634,-38.659 26.488,-39.974 12.542,-1.19 18.132,12.177 27.72,17.34 28.141,15.155 54.311,90.694 46.165,122.05 -4.668,17.966 -32.806,31.35 -50.286,33.11 z" /><g
           id="g560"><g
             clip-path="url(#clipPath566)"
             id="g562"><path
               id="path568"
               style="fill:#1abb1a;fill-opacity:1;fill-rule:evenodd;stroke:none"
               d="m 182.077,787.5 c -14.007,1.41 -37.702,-6.226 -43.746,-18.07 -13.673,-26.794 -8.392,-61.162 3.613,-88.119 3.545,-7.961 10.123,-30.976 21.224,-32.03 10.049,-0.953 14.528,9.757 22.211,13.894 22.549,12.144 43.518,72.671 36.99,97.795 -3.739,14.396 -26.286,25.12 -40.292,26.53 z" /></g></g><path
           id="path570"
           style="fill:#1abb1a;fill-opacity:0.5;fill-rule:evenodd;stroke:none"
           d="m 158.913,503.248 c 30.997,-11.651 47.241,-44.848 36.25,-74.087 -10.99,-29.239 -45.078,-43.517 -76.076,-31.866 -30.9973,11.651 -47.2407,44.849 -36.2505,74.087 10.9902,29.239 45.0785,43.518 76.0765,31.866 z" /><g
           id="g572"><g
             clip-path="url(#clipPath578)"
             id="g574"><path
               id="path580"
               style="fill:#1abb1a;fill-opacity:1;fill-rule:evenodd;stroke:none"
               d="m 152.275,485.589 c 20.665,-7.767 31.494,-29.899 24.167,-49.391 -7.326,-19.493 -30.052,-29.012 -50.717,-21.244 -20.665,7.767 -31.4941,29.899 -24.167,49.391 7.326,19.493 30.052,29.012 50.717,21.244 z" /></g></g><path
           id="path582"
           style="fill:#616161;fill-opacity:0.25;fill-rule:evenodd;stroke:none"
           d="M 630.757,982.703 C 671.709,971.597 711.9,955.055 750.348,932.814 989.221,794.64 1070.98,488.525 932.8,249.652 794.626,10.7788 488.511,-70.9752 249.638,67.1996 211.189,89.44 176.811,116.031 146.766,145.993 360.24,88.0959 594.403,177.91 710.337,378.334 c 115.935,200.425 77.041,448.187 -79.58,604.369 z" /></g></g></g></svg>