<?xml version="1.0" encoding="UTF-8" standalone="no"?>
<!DOCTYPE svg PUBLIC "-//W3C//DTD SVG 1.1//EN" "http://www.w3.org/Graphics/SVG/1.1/DTD/svg11.dtd">
<svg width="100%" height="100%" viewBox="0 0 1000 1000" version="1.1" xmlns="http://www.w3.org/2000/svg" xmlns:xlink="http://www.w3.org/1999/xlink" xml:space="preserve" xmlns:serif="http://www.serif.com/" style="fill-rule:evenodd;clip-rule:evenodd;stroke-linecap:round;stroke-linejoin:round;stroke-miterlimit:1.5;">
    <g transform="matrix(0.92,0,0,0.92,40,40)">
        <circle cx="500" cy="500" r="500" style="fill:white;stroke:black;stroke-width:70.65px;"/>
    </g>
    <g id="round-arrow_forward-24px" transform="matrix(38.3333,0,0,38.3333,500,500)">
        <g transform="matrix(1,0,0,1,-12,-12)">
            <rect x="0" y="0" width="24" height="24" style="fill:none;fill-rule:nonzero;"/>
            <path d="M5,13L16.17,13L11.29,17.88C10.9,18.27 10.9,18.91 11.29,19.3C11.68,19.69 12.31,19.69 12.7,19.3L19.29,12.71C19.68,12.32 19.68,11.69 19.29,11.3L12.71,4.7C12.32,4.31 11.69,4.31 11.3,4.7C10.91,5.09 10.91,5.72 11.3,6.11L16.17,11L5,11C4.45,11 4,11.45 4,12C4,12.55 4.45,13 5,13Z" style="fill-rule:nonzero;"/>
        </g>
    </g>
</svg>
