<?xml version="1.0" encoding="UTF-8" standalone="no"?>
<svg
   xmlns:dc="http://purl.org/dc/elements/1.1/"
   xmlns:cc="http://creativecommons.org/ns#"
   xmlns:rdf="http://www.w3.org/1999/02/22-rdf-syntax-ns#"
   xmlns:svg="http://www.w3.org/2000/svg"
   xmlns="http://www.w3.org/2000/svg"
   viewBox="0 0 1333.3333 1333.3333"
   height="1333.3333"
   width="1333.3333"
   xml:space="preserve"
   id="svg2"
   version="1.1"><metadata
     id="metadata8"><rdf:RDF><cc:Work
         rdf:about=""><dc:format>image/svg+xml</dc:format><dc:type
           rdf:resource="http://purl.org/dc/dcmitype/StillImage" /><dc:title></dc:title></cc:Work></rdf:RDF></metadata><defs
     id="defs6" /><g
     transform="matrix(1.3333333,0,0,-1.3333333,0,1333.3333)"
     id="g10"><path
       id="path12"
       style="fill:#4f4f4f;fill-opacity:1;fill-rule:evenodd;stroke:none"
       d="M 0,0 0.5283,0.3203 C 90.6689,55.1518 261.461,249.4 315.333,389 361.251,507.989 389.837,777.982 428.028,856.057 L 500,1000 571.972,856.057 C 610.163,777.982 638.749,507.989 684.667,389 738.539,249.4 909.331,55.1518 999.472,0.3203 L 1000,0 Z" /><path
       id="path14"
       style="fill:none;stroke:#1688fa;stroke-width:8;stroke-linecap:butt;stroke-linejoin:miter;stroke-miterlimit:10;stroke-dasharray:none;stroke-opacity:1"
       d="m 94,24 c 0,0 197.096,180.948 250,317 53.192,136.793 79.949,389.657 111,481 14.651,43.099 45,60 45,60 0,0 30.349,-16.901 45,-60 C 576.051,730.657 602.808,477.793 656,341 708.904,204.948 906,24 906,24 Z" /></g></svg>