<?xml version="1.0" encoding="UTF-8" standalone="no"?>
<!-- Created with Inkscape (http://www.inkscape.org/) -->

<svg
   xmlns:dc="http://purl.org/dc/elements/1.1/"
   xmlns:cc="http://creativecommons.org/ns#"
   xmlns:rdf="http://www.w3.org/1999/02/22-rdf-syntax-ns#"
   xmlns:svg="http://www.w3.org/2000/svg"
   xmlns="http://www.w3.org/2000/svg"
   xmlns:sodipodi="http://sodipodi.sourceforge.net/DTD/sodipodi-0.dtd"
   xmlns:inkscape="http://www.inkscape.org/namespaces/inkscape"
   version="1.1"
   id="svg736"
   xml:space="preserve"
   width="1333.3333"
   height="1333.3333"
   viewBox="0 0 1333.3333 1333.3333"
   sodipodi:docname="0.svg"
   inkscape:version="0.92.3 (2405546, 2018-03-11)"><title
     id="title768">Rocky 0</title><metadata
     id="metadata742"><rdf:RDF><cc:Work
         rdf:about=""><dc:format>image/svg+xml</dc:format><dc:type
           rdf:resource="http://purl.org/dc/dcmitype/StillImage" /><dc:title>Rocky 0</dc:title></cc:Work></rdf:RDF></metadata><defs
     id="defs740"><clipPath
       clipPathUnits="userSpaceOnUse"
       id="clipPath754"><path
         d="m 500,1000 c 275.958,0 500,-224.042 500,-500 C 1000,224.042 775.958,0 500,0 224.042,0 0,224.042 0,500 c 0,275.958 224.042,500 500,500 z"
         id="path752"
         inkscape:connector-curvature="0"
         style="clip-rule:evenodd" /></clipPath></defs><sodipodi:namedview
     pagecolor="#ffffff"
     bordercolor="#666666"
     borderopacity="1"
     objecttolerance="10"
     gridtolerance="10"
     guidetolerance="10"
     inkscape:pageopacity="0"
     inkscape:pageshadow="2"
     inkscape:window-width="2736"
     inkscape:window-height="1699"
     id="namedview738"
     showgrid="false"
     inkscape:zoom="0.17700001"
     inkscape:cx="666.66663"
     inkscape:cy="666.66663"
     inkscape:window-x="-13"
     inkscape:window-y="-13"
     inkscape:window-maximized="1"
     inkscape:current-layer="g744" /><g
     id="g744"
     inkscape:groupmode="layer"
     inkscape:label="0"
     transform="matrix(1.3333333,0,0,-1.3333333,0,1333.3333)"><path
       d="m 500,1000 c 275.958,0 500,-224.042 500,-500 C 1000,224.042 775.958,0 500,0 224.042,0 0,224.042 0,500 c 0,275.958 224.042,500 500,500 z"
       style="fill:#ffcf00;fill-opacity:1;fill-rule:evenodd;stroke:none"
       id="path746"
       inkscape:connector-curvature="0" /><g
       id="g748"><g
         id="g750"
         clip-path="url(#clipPath754)"><path
           d="M 428.559,994.925 C 451.894,998.269 475.746,1000 500,1000 775.958,1000 1000,775.958 1000,500 1000,224.042 775.958,0 500,0 475.746,0 451.894,1.7306 428.559,5.075 670.727,39.783 857.118,248.296 857.118,500 c 0,251.704 -186.391,460.217 -428.559,494.925 z"
           style="fill:#000000;fill-opacity:0.1;fill-rule:evenodd;stroke:none"
           id="path756"
           inkscape:connector-curvature="0" /><path
           d="m 271.881,815.816 c 34.143,0 61.863,-27.168 61.863,-60.631 0,-33.463 -27.72,-60.631 -61.863,-60.631 -34.144,0 -61.864,27.168 -61.864,60.631 0,33.463 27.72,60.631 61.864,60.631 z"
           style="fill:#000000;fill-opacity:0.2;fill-rule:evenodd;stroke:none"
           id="path758"
           inkscape:connector-curvature="0" /><path
           d="m 596.921,591.927 c 26.59,0 48.177,-20.595 48.177,-45.963 0,-25.368 -21.587,-45.964 -48.177,-45.964 -26.589,0 -48.177,20.596 -48.177,45.964 0,25.368 21.588,45.963 48.177,45.963 z"
           style="fill:#000000;fill-opacity:0.2;fill-rule:evenodd;stroke:none"
           id="path760"
           inkscape:connector-curvature="0" /><path
           d="m 676.03,332.512 c 51.215,0 92.795,-40.752 92.795,-90.947 0,-50.194 -41.58,-90.946 -92.795,-90.946 -51.215,0 -92.795,40.752 -92.795,90.946 0,50.195 41.58,90.947 92.795,90.947 z"
           style="fill:#000000;fill-opacity:0.2;fill-rule:evenodd;stroke:none"
           id="path762"
           inkscape:connector-curvature="0" /><path
           d="m 792.35,914.288 c 57.641,0 104.438,-49.23 104.438,-109.867 0,-60.637 -46.797,-109.867 -104.438,-109.867 -57.642,0 -104.439,49.23 -104.439,109.867 0,60.637 46.797,109.867 104.439,109.867 z"
           style="fill:#000000;fill-opacity:0.2;fill-rule:evenodd;stroke:none"
           id="path764"
           inkscape:connector-curvature="0" /><path
           d="m 249.123,432.147 c 46.704,0 84.621,-35.906 84.621,-80.133 0,-44.227 -37.917,-80.133 -84.621,-80.133 -46.703,0 -84.621,35.906 -84.621,80.133 0,44.227 37.918,80.133 84.621,80.133 z"
           style="fill:#000000;fill-opacity:0.2;fill-rule:evenodd;stroke:none"
           id="path766"
           inkscape:connector-curvature="0" /></g></g></g></svg>