<?xml version="1.0" encoding="UTF-8" standalone="no"?>
<svg
   xmlns:dc="http://purl.org/dc/elements/1.1/"
   xmlns:cc="http://creativecommons.org/ns#"
   xmlns:rdf="http://www.w3.org/1999/02/22-rdf-syntax-ns#"
   xmlns:svg="http://www.w3.org/2000/svg"
   xmlns="http://www.w3.org/2000/svg"
   viewBox="0 0 1333.3333 1333.3333"
   height="1333.3333"
   width="1333.3333"
   xml:space="preserve"
   id="svg770"
   version="1.1"><title
     id="title800">Rocky 1</title><metadata
     id="metadata776"><rdf:RDF><cc:Work
         rdf:about=""><dc:format>image/svg+xml</dc:format><dc:type
           rdf:resource="http://purl.org/dc/dcmitype/StillImage" /><dc:title>Rocky 1</dc:title></cc:Work></rdf:RDF></metadata><defs
     id="defs774"><clipPath
       id="clipPath788"
       clipPathUnits="userSpaceOnUse"><path
         style="clip-rule:evenodd"
         id="path786"
         d="m 500,1000 c 275.958,0 500,-224.042 500,-500 C 1000,224.042 775.958,0 500,0 224.042,0 0,224.042 0,500 c 0,275.958 224.042,500 500,500 z" /></clipPath></defs><g
     transform="matrix(1.3333333,0,0,-1.3333333,0,1333.3333)"
     id="g778"><path
       id="path780"
       style="fill:#d22727;fill-opacity:1;fill-rule:evenodd;stroke:none"
       d="m 500,1000 c 275.958,0 500,-224.042 500,-500 C 1000,224.042 775.958,0 500,0 224.042,0 0,224.042 0,500 c 0,275.958 224.042,500 500,500 z" /><g
       id="g782"><g
         clip-path="url(#clipPath788)"
         id="g784"><path
           id="path790"
           style="fill:#000000;fill-opacity:0.1;fill-rule:evenodd;stroke:none"
           d="m 419.5,993.541 c 26.209,4.25 53.099,6.459 80.5,6.459 275.958,0 500,-224.042 500,-500 C 1000,224.042 775.958,0 500,0 472.599,0 445.709,2.209 419.5,6.4587 657.241,45.0046 839,251.444 839,500 839,748.556 657.241,954.995 419.5,993.541 Z" /><path
           id="path792"
           style="fill:#000000;fill-opacity:0.19409999;fill-rule:evenodd;stroke:none"
           d="m 249,757 c 41.394,0 75,-33.606 75,-75 0,-41.394 -33.606,-75 -75,-75 -41.394,0 -75,33.606 -75,75 0,41.394 33.606,75 75,75 z" /><path
           id="path794"
           style="fill:#000000;fill-opacity:0.19409999;fill-rule:evenodd;stroke:none"
           d="m 457.919,533.375 c 69.486,0 125.899,-56.836 125.899,-126.841 0,-70.006 -56.413,-126.841 -125.899,-126.841 -69.485,0 -125.898,56.835 -125.898,126.841 0,70.005 56.413,126.841 125.898,126.841 z" /><path
           id="path796"
           style="fill:#000000;fill-opacity:0.19409999;fill-rule:evenodd;stroke:none"
           d="m 624.936,857.256 c 40.547,0 73.466,-31.723 73.466,-70.797 0,-39.074 -32.919,-70.797 -73.466,-70.797 -40.547,0 -73.467,31.723 -73.467,70.797 0,39.074 32.92,70.797 73.467,70.797 z" /><path
           id="path798"
           style="fill:#000000;fill-opacity:0.19409999;fill-rule:evenodd;stroke:none"
           d="m 821.509,562.73 c 40.547,0 73.466,-31.723 73.466,-70.797 0,-39.074 -32.919,-70.797 -73.466,-70.797 -40.547,0 -73.467,31.723 -73.467,70.797 0,39.074 32.92,70.797 73.467,70.797 z" /></g></g></g></svg>