<?xml version="1.0" encoding="UTF-8" standalone="no"?>
<svg
   xmlns:dc="http://purl.org/dc/elements/1.1/"
   xmlns:cc="http://creativecommons.org/ns#"
   xmlns:rdf="http://www.w3.org/1999/02/22-rdf-syntax-ns#"
   xmlns:svg="http://www.w3.org/2000/svg"
   xmlns="http://www.w3.org/2000/svg"
   viewBox="0 0 1333.3333 1333.3333"
   height="1333.3333"
   width="1333.3333"
   xml:space="preserve"
   id="svg802"
   version="1.1"><title
     id="title834">Rocky 2</title><metadata
     id="metadata808"><rdf:RDF><cc:Work
         rdf:about=""><dc:format>image/svg+xml</dc:format><dc:type
           rdf:resource="http://purl.org/dc/dcmitype/StillImage" /><dc:title>Rocky 2</dc:title></cc:Work></rdf:RDF></metadata><defs
     id="defs806"><clipPath
       id="clipPath820"
       clipPathUnits="userSpaceOnUse"><path
         style="clip-rule:evenodd"
         id="path818"
         d="m 500,1000 c 275.958,0 500,-224.042 500,-500 C 1000,224.042 775.958,0 500,0 224.042,0 0,224.042 0,500 c 0,275.958 224.042,500 500,500 z" /></clipPath></defs><g
     transform="matrix(1.3333333,0,0,-1.3333333,0,1333.3333)"
     id="g810"><path
       id="path812"
       style="fill:#a53500;fill-opacity:1;fill-rule:evenodd;stroke:none"
       d="m 500,1000 c 275.958,0 500,-224.042 500,-500 C 1000,224.042 775.958,0 500,0 224.042,0 0,224.042 0,500 c 0,275.958 224.042,500 500,500 z" /><g
       id="g814"><g
         clip-path="url(#clipPath820)"
         id="g816"><path
           id="path822"
           style="fill:#000000;fill-opacity:0.2;fill-rule:evenodd;stroke:none"
           d="m 334.181,710.403 c 56.703,0 102.739,-47.139 102.739,-105.202 C 436.92,547.139 390.884,500 334.181,500 c -56.703,0 -102.739,47.139 -102.739,105.201 0,58.063 46.036,105.202 102.739,105.202 z" /><path
           id="path824"
           style="fill:#000000;fill-opacity:0.2;fill-rule:evenodd;stroke:none"
           d="m 731.044,813.656 c 44.695,0 80.981,-35.957 80.981,-80.245 0,-44.288 -36.286,-80.245 -80.981,-80.245 -44.694,0 -80.98,35.957 -80.98,80.245 0,44.288 36.286,80.245 80.98,80.245 z" /><path
           id="path826"
           style="fill:#000000;fill-opacity:0.2;fill-rule:evenodd;stroke:none"
           d="m 522.023,286.065 c 26.735,0 48.44,-21.351 48.44,-47.649 0,-26.298 -21.705,-47.649 -48.44,-47.649 -26.734,0 -48.439,21.351 -48.439,47.649 0,26.298 21.705,47.649 48.439,47.649 z" /><path
           id="path828"
           style="fill:#000000;fill-opacity:0.2;fill-rule:evenodd;stroke:none"
           d="m 157.072,392.366 c 32.76,0 59.357,-27.073 59.357,-60.419 0,-33.346 -26.597,-60.419 -59.357,-60.419 -32.759,0 -59.3564,27.073 -59.3564,60.419 0,33.346 26.5974,60.419 59.3564,60.419 z" /><path
           id="path830"
           style="fill:#000000;fill-opacity:0.2;fill-rule:evenodd;stroke:none"
           d="m 848.867,432.662 c 35.523,0 64.364,-29.959 64.364,-66.859 0,-36.9 -28.841,-66.858 -64.364,-66.858 -35.524,0 -64.364,29.958 -64.364,66.858 0,36.9 28.84,66.859 64.364,66.859 z" /><path
           id="path832"
           style="fill:#000000;fill-opacity:0.1;fill-rule:evenodd;stroke:none"
           d="m 419.5,993.541 c 26.209,4.25 53.099,6.459 80.5,6.459 275.958,0 500,-224.042 500,-500 C 1000,224.042 775.958,0 500,0 472.599,0 445.709,2.209 419.5,6.4587 657.241,45.0046 839,251.444 839,500 839,748.556 657.241,954.995 419.5,993.541 Z" /></g></g></g></svg>