<?xml version="1.0" encoding="UTF-8" standalone="no"?>
<!-- Created with Inkscape (http://www.inkscape.org/) -->

<svg
   xmlns:dc="http://purl.org/dc/elements/1.1/"
   xmlns:cc="http://creativecommons.org/ns#"
   xmlns:rdf="http://www.w3.org/1999/02/22-rdf-syntax-ns#"
   xmlns:svg="http://www.w3.org/2000/svg"
   xmlns="http://www.w3.org/2000/svg"
   xmlns:sodipodi="http://sodipodi.sourceforge.net/DTD/sodipodi-0.dtd"
   xmlns:inkscape="http://www.inkscape.org/namespaces/inkscape"
   version="1.1"
   id="svg868"
   xml:space="preserve"
   width="1333.3333"
   height="1333.3333"
   viewBox="0 0 1333.3333 1333.3333"
   sodipodi:docname="1.svg"
   inkscape:version="0.92.3 (2405546, 2018-03-11)"><title
     id="title904">Moon 1</title><metadata
     id="metadata874"><rdf:RDF><cc:Work
         rdf:about=""><dc:format>image/svg+xml</dc:format><dc:type
           rdf:resource="http://purl.org/dc/dcmitype/StillImage" /><dc:title>Moon 1</dc:title></cc:Work></rdf:RDF></metadata><defs
     id="defs872"><clipPath
       clipPathUnits="userSpaceOnUse"
       id="clipPath886"><path
         d="m 500,1000 c 275.958,0 500,-224.042 500,-500 C 1000,224.042 775.958,0 500,0 224.042,0 0,224.042 0,500 c 0,275.958 224.042,500 500,500 z"
         id="path884"
         inkscape:connector-curvature="0"
         style="clip-rule:evenodd" /></clipPath></defs><sodipodi:namedview
     pagecolor="#ffffff"
     bordercolor="#666666"
     borderopacity="1"
     objecttolerance="10"
     gridtolerance="10"
     guidetolerance="10"
     inkscape:pageopacity="0"
     inkscape:pageshadow="2"
     inkscape:window-width="713"
     inkscape:window-height="543"
     id="namedview870"
     showgrid="false"
     inkscape:zoom="0.17700001"
     inkscape:cx="666.66663"
     inkscape:cy="666.66663"
     inkscape:window-x="0"
     inkscape:window-y="0"
     inkscape:window-maximized="0"
     inkscape:current-layer="g876" /><g
     id="g876"
     inkscape:groupmode="layer"
     inkscape:label="1"
     transform="matrix(1.3333333,0,0,-1.3333333,0,1333.3333)"><path
       d="m 500,1000 c 275.958,0 500,-224.042 500,-500 C 1000,224.042 775.958,0 500,0 224.042,0 0,224.042 0,500 c 0,275.958 224.042,500 500,500 z"
       style="fill:#c3b200;fill-opacity:1;fill-rule:evenodd;stroke:none"
       id="path878"
       inkscape:connector-curvature="0" /><g
       id="g880"><g
         id="g882"
         clip-path="url(#clipPath886)"><path
           d="m 301.893,269.993 c 45.258,-31.589 64.219,-82.711 42.318,-114.089 -21.902,-31.379 -76.427,-31.208 -121.684,0.381 -45.258,31.59 -64.219,82.711 -42.318,114.09 21.902,31.378 76.427,31.207 121.684,-0.382 z"
           style="fill:#096700;fill-opacity:0.5;fill-rule:evenodd;stroke:none"
           id="path888"
           inkscape:connector-curvature="0" /><path
           d="m 291.973,255.779 c 33.943,-23.691 48.164,-62.033 31.737,-85.566 -16.426,-23.534 -57.319,-23.406 -91.262,0.286 -33.943,23.692 -48.165,62.033 -31.738,85.567 16.426,23.534 57.32,23.405 91.263,-0.287 z"
           style="fill:#096700;fill-opacity:1;fill-rule:evenodd;stroke:none"
           id="path890"
           inkscape:connector-curvature="0" /><path
           d="m 718.033,249.909 c 29.27,29.269 69.509,36.557 89.803,16.263 20.293,-20.293 13.006,-60.533 -16.264,-89.802 -29.27,-29.27 -69.509,-36.557 -89.802,-16.264 -20.294,20.294 -13.007,60.533 16.263,89.803 z"
           style="fill:#096700;fill-opacity:0.44190004;fill-rule:evenodd;stroke:none"
           id="path892"
           inkscape:connector-curvature="0" /><path
           d="m 727.225,240.716 c 21.953,21.953 52.132,27.418 67.352,12.198 15.221,-15.22 9.755,-45.4 -12.197,-67.352 -21.953,-21.952 -52.132,-27.418 -67.352,-12.198 -15.22,15.221 -9.755,45.4 12.197,67.352 z"
           style="fill:#096700;fill-opacity:0.44190004;fill-rule:evenodd;stroke:none"
           id="path894"
           inkscape:connector-curvature="0" /><path
           d="m 461.926,658.538 c 68.165,-10.633 117.521,-57.636 110.148,-104.897 -7.372,-47.261 -68.699,-76.998 -136.864,-66.365 -68.165,10.633 -117.521,57.636 -110.148,104.897 7.372,47.262 68.699,76.999 136.864,66.365 z"
           style="fill:#096700;fill-opacity:0.27880004;fill-rule:evenodd;stroke:none"
           id="path896"
           inkscape:connector-curvature="0" /><path
           d="m 458.587,637.13 c 51.123,-7.975 88.14,-43.227 82.611,-78.673 -5.53,-35.445 -51.525,-57.748 -102.648,-49.773 -51.124,7.975 -88.141,43.227 -82.612,78.673 5.53,35.446 51.525,57.748 102.649,49.773 z"
           style="fill:#096700;fill-opacity:0.27880004;fill-rule:evenodd;stroke:none"
           id="path898"
           inkscape:connector-curvature="0" /><path
           d="M 976.786,650.907 C 927.857,676.271 874.298,716.818 830,727 c -38.964,8.956 -79.147,-18.188 -119,-15 -41.667,3.333 -88.242,20.349 -131,35 -47.667,16.333 -99.517,57.335 -155,63 -55.5,5.667 -146.5,-42.5 -178,-29 -31.5,13.5 -33.5,81.333 -11,110 22.5,28.667 97.833,58.667 146,62 48.167,3.333 98.789,-19.34 143,-42 46.5,-23.833 103,-96 136,-101 31.066,-4.707 37.833,65.5 62,71 24.167,5.5 63.267,-35.362 83,-38 13.8,-1.845 29.497,18.479 35.397,22.175 71.166,-50.763 125.854,-153.869 135.388,-214.267"
           style="fill:#ffffff;fill-opacity:0.38670002;fill-rule:evenodd;stroke:none"
           id="path900"
           inkscape:connector-curvature="0" /><path
           d="M 628.5,16.696 C 587.49,5.8044 544.418,0 500,0 224.042,0 0,224.042 0,500 c 0,275.958 224.042,500 500,500 44.418,0 87.49,-5.804 128.5,-16.696 C 414.724,926.532 257,731.54 257,500 257,268.46 414.724,73.468 628.5,16.696 Z"
           style="fill:#747474;fill-opacity:0.5;fill-rule:evenodd;stroke:none"
           id="path902"
           inkscape:connector-curvature="0" /></g></g></g></svg>