<?xml version="1.0" encoding="UTF-8" standalone="no"?>
<svg
   xmlns:dc="http://purl.org/dc/elements/1.1/"
   xmlns:cc="http://creativecommons.org/ns#"
   xmlns:rdf="http://www.w3.org/1999/02/22-rdf-syntax-ns#"
   xmlns:svg="http://www.w3.org/2000/svg"
   xmlns="http://www.w3.org/2000/svg"
   viewBox="0 0 639.91998 266.63333"
   height="266.63333"
   width="639.91998"
   xml:space="preserve"
   id="svg2"
   version="1.1"><metadata
     id="metadata8"><rdf:RDF><cc:Work
         rdf:about=""><dc:format>image/svg+xml</dc:format><dc:type
           rdf:resource="http://purl.org/dc/dcmitype/StillImage" /><dc:title></dc:title></cc:Work></rdf:RDF></metadata><defs
     id="defs6"><clipPath
       id="clipPath18"
       clipPathUnits="userSpaceOnUse"><path
         style="clip-rule:evenodd"
         id="path16"
         d="M 0,0 H 479.94 V 199.975 H 0 Z" /></clipPath></defs><g
     transform="matrix(1.3333333,0,0,-1.3333333,0,266.63333)"
     id="g10"><g
       id="g12"><g
         clip-path="url(#clipPath18)"
         id="g14"><path
           id="path20"
           style="fill:#ffffff;fill-opacity:0.5;fill-rule:evenodd;stroke:none"
           d="m 479.94,99.9875 c 0,55.1845 -44.803,99.9875 -99.987,99.9875 H 99.9875 C 44.8029,199.975 0,155.172 0,99.9875 0,44.8029 44.8029,0 99.9875,0 H 379.953 c 55.184,0 99.987,44.8029 99.987,99.9875 z" /><path
           id="path22"
           style="fill:#ffffff;fill-opacity:1;fill-rule:evenodd;stroke:none"
           d="m 468.441,99.9875 c 0,49.6665 -40.322,89.9885 -89.988,89.9885 H 99.9875 C 50.3214,189.976 9.9988,149.654 9.9988,99.9875 9.9988,50.3214 50.3214,9.9988 99.9875,9.9988 H 378.453 c 49.666,0 89.988,40.3226 89.988,89.9887 z" /></g></g></g></svg>