<?xml version="1.0" encoding="UTF-8" standalone="no"?>
<!-- Created with Inkscape (http://www.inkscape.org/) -->

<svg
   xmlns:dc="http://purl.org/dc/elements/1.1/"
   xmlns:cc="http://creativecommons.org/ns#"
   xmlns:rdf="http://www.w3.org/1999/02/22-rdf-syntax-ns#"
   xmlns:svg="http://www.w3.org/2000/svg"
   xmlns="http://www.w3.org/2000/svg"
   xmlns:sodipodi="http://sodipodi.sourceforge.net/DTD/sodipodi-0.dtd"
   xmlns:inkscape="http://www.inkscape.org/namespaces/inkscape"
   version="1.1"
   id="svg836"
   xml:space="preserve"
   width="1333.3333"
   height="1333.3333"
   viewBox="0 0 1333.3333 1333.3333"
   sodipodi:docname="0.svg"
   inkscape:version="0.92.3 (2405546, 2018-03-11)"><title
     id="title866">Moon 0</title><metadata
     id="metadata842"><rdf:RDF><cc:Work
         rdf:about=""><dc:format>image/svg+xml</dc:format><dc:type
           rdf:resource="http://purl.org/dc/dcmitype/StillImage" /><dc:title>Moon 0</dc:title></cc:Work></rdf:RDF></metadata><defs
     id="defs840"><clipPath
       clipPathUnits="userSpaceOnUse"
       id="clipPath854"><path
         d="m 500,1000 c 275.958,0 500,-224.042 500,-500 C 1000,224.042 775.958,0 500,0 224.042,0 0,224.042 0,500 c 0,275.958 224.042,500 500,500 z"
         id="path852"
         inkscape:connector-curvature="0"
         style="clip-rule:evenodd" /></clipPath></defs><sodipodi:namedview
     pagecolor="#ffffff"
     bordercolor="#666666"
     borderopacity="1"
     objecttolerance="10"
     gridtolerance="10"
     guidetolerance="10"
     inkscape:pageopacity="0"
     inkscape:pageshadow="2"
     inkscape:window-width="713"
     inkscape:window-height="543"
     id="namedview838"
     showgrid="false"
     inkscape:zoom="0.17700001"
     inkscape:cx="666.66663"
     inkscape:cy="666.66663"
     inkscape:window-x="0"
     inkscape:window-y="0"
     inkscape:window-maximized="0"
     inkscape:current-layer="g844" /><g
     id="g844"
     inkscape:groupmode="layer"
     inkscape:label="0"
     transform="matrix(1.3333333,0,0,-1.3333333,0,1333.3333)"><path
       d="m 500,1000 c 275.958,0 500,-224.042 500,-500 C 1000,224.042 775.958,0 500,0 224.042,0 0,224.042 0,500 c 0,275.958 224.042,500 500,500 z"
       style="fill:#a5a5a5;fill-opacity:1;fill-rule:evenodd;stroke:none"
       id="path846"
       inkscape:connector-curvature="0" /><g
       id="g848"><g
         id="g850"
         clip-path="url(#clipPath854)"><path
           d="m 648,303 c 41.394,0 75,-33.606 75,-75 0,-41.394 -33.606,-75 -75,-75 -41.394,0 -75,33.606 -75,75 0,41.394 33.606,75 75,75 z"
           style="fill:#8d8d8d;fill-opacity:1;fill-rule:evenodd;stroke:none"
           id="path856"
           inkscape:connector-curvature="0" /><path
           d="m 793,821 c 27.596,0 50,-22.404 50,-50 0,-27.596 -22.404,-50 -50,-50 -27.596,0 -50,22.404 -50,50 0,27.596 22.404,50 50,50 z"
           style="fill:#8d8d8d;fill-opacity:1;fill-rule:evenodd;stroke:none"
           id="path858"
           inkscape:connector-curvature="0" /><path
           d="m 449.5,871 c 34.495,0 62.5,-28.005 62.5,-62.5 0,-34.495 -28.005,-62.5 -62.5,-62.5 -34.495,0 -62.5,28.005 -62.5,62.5 0,34.495 28.005,62.5 62.5,62.5 z"
           style="fill:#8d8d8d;fill-opacity:1;fill-rule:evenodd;stroke:none"
           id="path860"
           inkscape:connector-curvature="0" /><path
           d="m 243,600 c 55.192,0 100,-44.808 100,-100 0,-55.192 -44.808,-100 -100,-100 -55.192,0 -100,44.808 -100,100 0,55.192 44.808,100 100,100 z"
           style="fill:#8d8d8d;fill-opacity:1;fill-rule:evenodd;stroke:none"
           id="path862"
           inkscape:connector-curvature="0" /><path
           d="M 371.5,983.304 C 412.51,994.196 455.582,1000 500,1000 775.958,1000 1000,775.958 1000,500 1000,224.042 775.958,0 500,0 455.582,0 412.51,5.8044 371.5,16.696 585.276,73.468 743,268.46 743,500 743,731.54 585.276,926.532 371.5,983.304 Z"
           style="fill:#747474;fill-opacity:0.5;fill-rule:evenodd;stroke:none"
           id="path864"
           inkscape:connector-curvature="0" /></g></g></g></svg>