<?xml version="1.0" encoding="UTF-8" standalone="no"?>
<!-- Created with Inkscape (http://www.inkscape.org/) -->

<svg
   xmlns:dc="http://purl.org/dc/elements/1.1/"
   xmlns:cc="http://creativecommons.org/ns#"
   xmlns:rdf="http://www.w3.org/1999/02/22-rdf-syntax-ns#"
   xmlns:svg="http://www.w3.org/2000/svg"
   xmlns="http://www.w3.org/2000/svg"
   xmlns:sodipodi="http://sodipodi.sourceforge.net/DTD/sodipodi-0.dtd"
   xmlns:inkscape="http://www.inkscape.org/namespaces/inkscape"
   version="1.1"
   id="svg906"
   xml:space="preserve"
   width="1333.3333"
   height="1333.3333"
   viewBox="0 0 1333.3333 1333.3333"
   sodipodi:docname="2.svg"
   inkscape:version="0.92.3 (2405546, 2018-03-11)"><title
     id="title932">Moon 2</title><metadata
     id="metadata912"><rdf:RDF><cc:Work
         rdf:about=""><dc:format>image/svg+xml</dc:format><dc:type
           rdf:resource="http://purl.org/dc/dcmitype/StillImage" /><dc:title>Moon 2</dc:title></cc:Work></rdf:RDF></metadata><defs
     id="defs910"><clipPath
       clipPathUnits="userSpaceOnUse"
       id="clipPath924"><path
         d="m 500,1000 c 275.958,0 500,-224.042 500,-500 C 1000,224.042 775.958,0 500,0 224.042,0 0,224.042 0,500 c 0,275.958 224.042,500 500,500 z"
         id="path922"
         inkscape:connector-curvature="0"
         style="clip-rule:evenodd" /></clipPath></defs><sodipodi:namedview
     pagecolor="#ffffff"
     bordercolor="#666666"
     borderopacity="1"
     objecttolerance="10"
     gridtolerance="10"
     guidetolerance="10"
     inkscape:pageopacity="0"
     inkscape:pageshadow="2"
     inkscape:window-width="713"
     inkscape:window-height="543"
     id="namedview908"
     showgrid="false"
     inkscape:zoom="0.17700001"
     inkscape:cx="666.66663"
     inkscape:cy="666.66663"
     inkscape:window-x="0"
     inkscape:window-y="0"
     inkscape:window-maximized="0"
     inkscape:current-layer="g914" /><g
     id="g914"
     inkscape:groupmode="layer"
     inkscape:label="2"
     transform="matrix(1.3333333,0,0,-1.3333333,0,1333.3333)"><path
       d="m 500,1000 c 275.958,0 500,-224.042 500,-500 C 1000,224.042 775.958,0 500,0 224.042,0 0,224.042 0,500 c 0,275.958 224.042,500 500,500 z"
       style="fill:#f7dfdf;fill-opacity:1;fill-rule:evenodd;stroke:none"
       id="path916"
       inkscape:connector-curvature="0" /><g
       id="g918"><g
         id="g920"
         clip-path="url(#clipPath924)"><path
           d="M 121.77,827.072 C 167.848,833.103 175.128,722.512 189,668 202.872,613.488 174.167,543.333 205,500 235.833,456.667 315.529,434.364 374,408 437.577,379.333 554.796,362 586.462,328 615.091,297.261 581.244,233.667 564,204 c -16.307,-28.055 -49.416,-61.446 -81,-54 -43.833,10.333 -139.833,85.333 -182,116 -26.502,19.275 -47.167,55.333 -71,68 -21.323,11.333 -48.42,2.793 -72,8 -24.906,5.5 -55.903,8.508 -77.4384,25 C 54.2282,387.167 22.863,428.037 0,463 -61.0043,556.29 10.2868,812.481 121.77,827.072 Z"
           style="fill:#808080;fill-opacity:0.37660002;fill-rule:evenodd;stroke:none"
           id="path926"
           inkscape:connector-curvature="0" /><path
           d="M 648.828,977.46 C 576.942,977.921 442.805,914.577 399,878 368.117,852.213 394.324,797.364 386,758 376.167,711.5 324.167,629.333 340,599 c 15.833,-30.333 98,-6.5 141,-23 43,-16.5 79.167,-71.667 117,-76 37.833,-4.333 79,27.833 110,50 30.514,21.819 75,56.333 76,83 1,26.667 -73,49.833 -70,77 3,27.167 68.614,58.461 88,86 16.145,22.934 46.408,57.801 28.317,79.234 C 804.788,905.477 718.26,977.015 648.828,977.46 Z"
           style="fill:#bfbfbf;fill-opacity:0.6202;fill-rule:evenodd;stroke:none"
           id="path928"
           inkscape:connector-curvature="0" /><path
           d="m 80.5616,772.285 c 23.1044,35.589 51.1514,68.79 84.0894,98.589 204.64,185.136 521.088,169.296 706.223,-35.339 C 1056.01,630.896 1040.17,314.448 835.535,129.312 802.597,99.5131 766.762,74.9206 729.043,55.4846 849.484,241.004 835.629,491.417 680.293,663.118 524.957,834.819 277.177,873.604 80.5616,772.285 Z"
           style="fill:#747474;fill-opacity:0.21690004;fill-rule:evenodd;stroke:none"
           id="path930"
           inkscape:connector-curvature="0" /></g></g></g></svg>