<?xml version="1.0" encoding="UTF-8" standalone="no"?>
<svg
   xmlns:dc="http://purl.org/dc/elements/1.1/"
   xmlns:cc="http://creativecommons.org/ns#"
   xmlns:rdf="http://www.w3.org/1999/02/22-rdf-syntax-ns#"
   xmlns:svg="http://www.w3.org/2000/svg"
   xmlns="http://www.w3.org/2000/svg"
   viewBox="0 0 1333.3333 1333.3333"
   height="1333.3333"
   width="1333.3333"
   xml:space="preserve"
   id="svg586"
   version="1.1"><title
     id="title644">Habitital_Planet 1</title><metadata
     id="metadata592"><rdf:RDF><cc:Work
         rdf:about=""><dc:format>image/svg+xml</dc:format><dc:type
           rdf:resource="http://purl.org/dc/dcmitype/StillImage" /><dc:title>Habitital_Planet 1</dc:title></cc:Work></rdf:RDF></metadata><defs
     id="defs590"><clipPath
       id="clipPath604"
       clipPathUnits="userSpaceOnUse"><path
         style="clip-rule:evenodd"
         id="path602"
         d="m 500,1000 c 275.958,0 500,-224.042 500,-500 C 1000,224.042 775.958,0 500,0 224.042,0 0,224.042 0,500 c 0,275.958 224.042,500 500,500 z" /></clipPath><clipPath
       id="clipPath614"
       clipPathUnits="userSpaceOnUse"><path
         style="clip-rule:evenodd"
         id="path612"
         d="M 473.335,-16.3884 C 218.23,-27.5858 -225.136,169.074 54.838,738.162 c 2.3032,-6.928 14.7508,-6.291 20.4747,-9.145 7.7848,-3.882 17.9985,-2.91 25.9893,-6.71 10.98,-5.222 21.052,-11.557 31.396,-18.448 13.311,-8.869 22.138,-23.034 32.484,-34.859 20.362,-23.271 41.346,-51.955 68.264,-67.902 11.194,-6.631 25.24,-9.071 37.562,-13.234 23.858,-8.061 53.46,-20.789 73.764,-36.13 24.334,-18.387 50.454,-35.276 73.065,-55.928 16.724,-15.275 38.023,-28.707 56.103,-44.233 4.117,-3.535 10.651,-7.05 13.514,-11.985 8.861,-15.273 9.691,-28.302 14.294,-44.945 11.108,-40.16 -7.022,-79.354 -11.985,-118.638 -3.573,-28.289 -8.174,-57.913 -5.732,-86.711 1.524,-17.975 6.091,-34.899 10.47,-52.43 6.824,-27.32 10.221,-55.9293 12.497,-84.1296 0.892,-11.0659 3.596,-22.7172 2.13,-33.9384 -0.632,-4.8372 -8.599,-8.2088 -11.705,-10.5238 -8.27,-6.1626 -19.427,-15.3828 -24.088,-24.6606 z" /></clipPath><clipPath
       id="clipPath626"
       clipPathUnits="userSpaceOnUse"><path
         style="clip-rule:evenodd"
         id="path624"
         d="m 836.212,878.6 c -35.663,-43.909 -65.747,-85.976 -98.423,-157.423 -19.286,-42.171 -42.146,-97.197 -54.82,-151.473 -6.916,-29.62 -10.799,-59.016 -9.413,-85.979 2.942,-57.243 21.733,-157.527 57.81,-200.435 33.669,-40.045 86.123,-121.04 102.78,-145.606 80.935,-119.3657 327.704,446.87 2.065,740.916" /></clipPath><clipPath
       id="clipPath638"
       clipPathUnits="userSpaceOnUse"><path
         style="clip-rule:evenodd"
         id="path636"
         d="m 774.216,935.697 c 27.078,-31.522 -24.399,-75.781 -76.124,-98.727 -23.536,-10.441 -61.956,-4.281 -80.406,-18.406 -36.313,-27.801 -46.955,-86.069 -90.193,-106.114 -35.726,-16.562 -67.745,-0.285 -98.266,19.058 -10.959,6.946 -22.487,15.283 -35.371,18.058 -33.219,7.155 -70.303,5.476 -101.924,18.524 -10.737,4.43 -39.808,21.127 -41.981,34.132 -2.199,13.158 3.658,44.32 -1.928,54.103 -10.407,18.228 -87.18,11.838 -73.709,35.559 92.698,163.226 515.572,141.986 599.902,43.813 z" /></clipPath></defs><g
     transform="matrix(1.3333333,0,0,-1.3333333,0,1333.3333)"
     id="g594"><path
       id="path596"
       style="fill:#0077e0;fill-opacity:1;fill-rule:evenodd;stroke:none"
       d="m 500,1000 c 275.958,0 500,-224.042 500,-500 C 1000,224.042 775.958,0 500,0 224.042,0 0,224.042 0,500 c 0,275.958 224.042,500 500,500 z" /><g
       id="g598"><g
         clip-path="url(#clipPath604)"
         id="g600"><path
           id="path606"
           style="fill:#1abb1a;fill-opacity:0.5;fill-rule:evenodd;stroke:none"
           d="M 473.335,-16.3884 C 218.23,-27.5858 -225.136,169.074 54.838,738.162 c 2.3032,-6.928 14.7508,-6.291 20.4747,-9.145 7.7848,-3.882 17.9985,-2.91 25.9893,-6.71 10.98,-5.222 21.052,-11.557 31.396,-18.448 13.311,-8.869 22.138,-23.034 32.484,-34.859 20.362,-23.271 41.346,-51.955 68.264,-67.902 11.194,-6.631 25.24,-9.071 37.562,-13.234 23.858,-8.061 53.46,-20.789 73.764,-36.13 24.334,-18.387 50.454,-35.276 73.065,-55.928 16.724,-15.275 38.023,-28.707 56.103,-44.233 4.117,-3.535 10.651,-7.05 13.514,-11.985 8.861,-15.273 9.691,-28.302 14.294,-44.945 11.108,-40.16 -7.022,-79.354 -11.985,-118.638 -3.573,-28.289 -8.174,-57.913 -5.732,-86.711 1.524,-17.975 6.091,-34.899 10.47,-52.43 6.824,-27.32 10.221,-55.9293 12.497,-84.1296 0.892,-11.0659 3.596,-22.7172 2.13,-33.9384 -0.632,-4.8372 -8.599,-8.2088 -11.705,-10.5238 -8.27,-6.1626 -19.427,-15.3828 -24.088,-24.6606 z" /><g
           id="g608"><g
             clip-path="url(#clipPath614)"
             id="g610"><path
               id="path616"
               style="fill:#1abb1a;fill-opacity:1;fill-rule:evenodd;stroke:none"
               d="M 446.606,3.4506 C 204.923,-7.1576 -215.114,179.155 50.1283,718.3 c 2.1821,-6.564 13.9747,-5.96 19.3975,-8.664 7.3751,-3.678 17.0514,-2.758 24.6216,-6.358 10.4026,-4.947 19.9446,-10.948 29.7446,-17.477 12.61,-8.402 20.972,-21.822 30.775,-33.025 19.29,-22.046 39.17,-49.221 64.672,-64.329 10.604,-6.282 23.912,-8.594 35.585,-12.538 22.603,-7.637 50.648,-19.694 69.883,-34.229 23.053,-17.419 47.799,-33.419 69.221,-52.985 15.844,-14.471 36.022,-27.196 53.151,-41.905 3.9,-3.349 10.09,-6.68 12.803,-11.354 8.394,-14.47 9.18,-26.813 13.542,-42.581 10.523,-38.047 -6.653,-75.179 -11.354,-112.395 -3.386,-26.801 -7.745,-54.866 -5.431,-82.15 1.444,-17.029 5.77,-33.062 9.919,-49.67 6.465,-25.883 9.683,-52.987 11.839,-79.7035 0.846,-10.4838 3.407,-21.522 2.018,-32.1527 -0.598,-4.5827 -8.146,-7.7769 -11.089,-9.9701 -7.835,-5.8384 -18.404,-14.5734 -22.82,-23.3631 z" /></g></g><path
           id="path618"
           style="fill:#1abb1a;fill-opacity:0.5;fill-rule:evenodd;stroke:none"
           d="m 836.212,878.6 c -35.663,-43.909 -65.747,-85.976 -98.423,-157.423 -19.286,-42.171 -42.146,-97.197 -54.82,-151.473 -6.916,-29.62 -10.799,-59.016 -9.413,-85.979 2.942,-57.243 21.733,-157.527 57.81,-200.435 33.669,-40.045 86.123,-121.04 102.78,-145.606 80.935,-119.3657 327.704,446.87 2.065,740.916" /><g
           id="g620"><g
             clip-path="url(#clipPath626)"
             id="g622"><path
               id="path628"
               style="fill:#1abb1a;fill-opacity:1;fill-rule:evenodd;stroke:none"
               d="M 853.93,853.038 C 820.62,812.025 792.52,772.734 762,706 734.155,645.115 698.337,555.546 702.004,484.213 704.752,430.746 722.303,337.078 756,297 c 31.448,-37.403 80.442,-113.055 96,-136 75.596,-111.4914 306.08,417.39 1.929,692.038" /></g></g><path
           id="path630"
           style="fill:#1abb1a;fill-opacity:0.5;fill-rule:evenodd;stroke:none"
           d="m 774.216,935.697 c 27.078,-31.522 -24.399,-75.781 -76.124,-98.727 -23.536,-10.441 -61.956,-4.281 -80.406,-18.406 -36.313,-27.801 -46.955,-86.069 -90.193,-106.114 -35.726,-16.562 -67.745,-0.285 -98.266,19.058 -10.959,6.946 -22.487,15.283 -35.371,18.058 -33.219,7.155 -70.303,5.476 -101.924,18.524 -10.737,4.43 -39.808,21.127 -41.981,34.132 -2.199,13.158 3.658,44.32 -1.928,54.103 -10.407,18.228 -87.18,11.838 -73.709,35.559 92.698,163.226 515.572,141.986 599.902,43.813 z" /><g
           id="g632"><g
             clip-path="url(#clipPath638)"
             id="g634"><path
               id="path640"
               style="fill:#1abb1a;fill-opacity:1;fill-rule:evenodd;stroke:none"
               d="m 740.299,938.387 c 24.426,-28.435 -22.009,-68.358 -68.667,-89.057 -21.231,-9.418 -55.888,-3.862 -72.53,-16.603 -32.757,-25.078 -42.356,-77.638 -81.359,-95.72 -32.226,-14.94 -61.109,-0.257 -88.64,17.192 -9.886,6.266 -20.285,13.786 -31.907,16.289 -29.964,6.454 -63.416,4.939 -91.94,16.709 -9.685,3.996 -35.908,19.058 -37.869,30.789 -1.983,11.869 3.3,39.978 -1.739,48.804 -9.388,16.442 -78.64,10.678 -66.488,32.075 83.617,147.245 465.07,128.075 541.139,39.522 z" /></g></g><path
           id="path642"
           style="fill:#616161;fill-opacity:0.25;fill-rule:evenodd;stroke:none"
           d="M 371.5,983.304 C 412.51,994.196 455.582,1000 500,1000 775.958,1000 1000,775.958 1000,500 1000,224.042 775.958,0 500,0 455.582,0 412.51,5.8044 371.5,16.696 585.276,73.468 743,268.46 743,500 743,731.54 585.276,926.532 371.5,983.304 Z" /></g></g></g></svg>