<?xml version="1.0" encoding="UTF-8" standalone="no"?>
<svg
   xmlns:dc="http://purl.org/dc/elements/1.1/"
   xmlns:cc="http://creativecommons.org/ns#"
   xmlns:rdf="http://www.w3.org/1999/02/22-rdf-syntax-ns#"
   xmlns:svg="http://www.w3.org/2000/svg"
   xmlns="http://www.w3.org/2000/svg"
   viewBox="0 0 1333.3333 1333.3333"
   height="1333.3333"
   width="1333.3333"
   xml:space="preserve"
   id="svg267"
   version="1.1"><title
     id="title325">Habitital_Planet 2</title><metadata
     id="metadata273"><rdf:RDF><cc:Work
         rdf:about=""><dc:format>image/svg+xml</dc:format><dc:type
           rdf:resource="http://purl.org/dc/dcmitype/StillImage" /><dc:title>Habitital_Planet 2</dc:title></cc:Work></rdf:RDF></metadata><defs
     id="defs271"><clipPath
       id="clipPath285"
       clipPathUnits="userSpaceOnUse"><path
         style="clip-rule:evenodd"
         id="path283"
         d="m 500,1000 c 275.958,0 500,-224.042 500,-500 C 1000,224.042 775.958,0 500,0 224.042,0 0,224.042 0,500 c 0,275.958 224.042,500 500,500 z" /></clipPath><clipPath
       id="clipPath295"
       clipPathUnits="userSpaceOnUse"><path
         style="clip-rule:evenodd"
         id="path293"
         d="m 137.259,142.493 c -0.984,0.983 4.922,4.611 5.349,4.806 6.783,3.101 12.354,8.512 18.915,12.373 27.943,16.441 58.449,23.231 90.109,28.352 22.796,3.687 53.142,-0.411 75.479,-5.321 12.852,-2.824 27.737,-3.588 40.006,-8.231 15.06,-5.699 32.779,-9.338 46.62,-17.77 15.771,-9.609 31.613,-18.705 47.036,-28.98 13.801,-9.195 30.063,-22.486 38.42,-37.1612 5.872,-10.3128 11.899,-20.471 13.914,-32.5924 0.905,-5.4455 0.87,-11.9551 2.687,-17.0374 4.773,-13.346 5.242,-32.5642 5.242,-47.0274 0,-3.3761 2.038,-10.9875 0.354,-14.3161 -0.388,-0.7659 -4.156,-0.2291 -4.965,-0.2291 -6.35,0 -11.943,0.8841 -18.027,2.3195 -7.324,1.7279 -15.484,2.6372 -22.95,3.5473 -3.882,0.4732 -7.105,2.8409 -10.72,3.9149 -15.474,4.5962 -38.321,-6.1829 -53.797,-1.3445 -23.252,7.2692 -72.783,-7.9331 -95.8,0 -8.691,2.9953 -63.793,-3.8644 -71.997,0 -10.204,4.8057 -37.041,35.4905 -47.452,40.0838 -27.66,12.2032 41.375,37.3649 14.552,50.2945 -8.85,4.2657 -16.009,13.33 -25.249,16.7346 -9.599,3.5368 -18.051,11.4355 -27.068,16.8985 -5.312,3.219 -11.67,5.9 -16.475,9.966 -3.45,2.919 -13.283,8.528 -13.957,13.696 -0.506,3.883 -3.267,13.181 5.245,8.925 2.111,-1.055 4.529,-1.901 4.529,-1.901 z" /></clipPath><clipPath
       id="clipPath307"
       clipPathUnits="userSpaceOnUse"><path
         style="clip-rule:evenodd"
         id="path305"
         d="M 13.0726,340.189 C -60.516,471.688 -89.1003,602.531 51.6684,730.91 c -1.4791,0 2.9546,-0.231 4.4091,-0.5 3.1929,-0.589 6.19,-1.746 9.3111,-2.6 8.4195,-2.303 15.9336,-10.099 21.4608,-16.634 4.8624,-5.749 7.7872,-13.35 9.804,-20.641 7.4206,-26.829 11.5176,-29.166 11.5176,-55.187 0,-14.271 -1.656,-30.055 0,-44.118 1.912,-16.236 5.687,-38.084 2.849,-55.024 C 103.425,490.88 85.6589,444.838 65.2526,404.134 55.7476,385.174 47.7488,361.22 28.6778,349.712 26.6346,348.479 15.1512,338.072 12.8942,340.329" /></clipPath><clipPath
       id="clipPath319"
       clipPathUnits="userSpaceOnUse"><path
         style="clip-rule:evenodd"
         id="path317"
         d="m 387.473,953.966 c 64.053,-9.378 164.623,-61.338 240.994,-104.038 82.277,-46.003 220.114,-85.99 252.671,-171.98 32.557,-85.99 -19.464,-247 -57.329,-343.96 C 788.374,243.251 722.599,113.705 653.946,96.1887 585.293,78.6722 487.799,197.395 411.891,228.889 343.946,257.08 227.696,226.943 198.5,285.154 c -29.195,58.212 41.758,218.514 38.22,293.003 -2.611,54.943 -60.691,99.261 -59.452,153.933 1.238,54.673 31.849,137.124 66.883,174.103 34.634,36.557 93.495,55.068 143.322,47.773 z" /></clipPath></defs><g
     transform="matrix(1.3333333,0,0,-1.3333333,0,1333.3333)"
     id="g275"><path
       id="path277"
       style="fill:#0077e0;fill-opacity:1;fill-rule:evenodd;stroke:none"
       d="m 500,1000 c 275.958,0 500,-224.042 500,-500 C 1000,224.042 775.958,0 500,0 224.042,0 0,224.042 0,500 c 0,275.958 224.042,500 500,500 z" /><g
       id="g279"><g
         clip-path="url(#clipPath285)"
         id="g281"><path
           id="path287"
           style="fill:#1abb1a;fill-opacity:0.5;fill-rule:evenodd;stroke:none"
           d="m 137.259,142.493 c -0.984,0.983 4.922,4.611 5.349,4.806 6.783,3.101 12.354,8.512 18.915,12.373 27.943,16.441 58.449,23.231 90.109,28.352 22.796,3.687 53.142,-0.411 75.479,-5.321 12.852,-2.824 27.737,-3.588 40.006,-8.231 15.06,-5.699 32.779,-9.338 46.62,-17.77 15.771,-9.609 31.613,-18.705 47.036,-28.98 13.801,-9.195 30.063,-22.486 38.42,-37.1612 5.872,-10.3128 11.899,-20.471 13.914,-32.5924 0.905,-5.4455 0.87,-11.9551 2.687,-17.0374 4.773,-13.346 5.242,-32.5642 5.242,-47.0274 0,-3.3761 2.038,-10.9875 0.354,-14.3161 -0.388,-0.7659 -4.156,-0.2291 -4.965,-0.2291 -6.35,0 -11.943,0.8841 -18.027,2.3195 -7.324,1.7279 -15.484,2.6372 -22.95,3.5473 -3.882,0.4732 -7.105,2.8409 -10.72,3.9149 -15.474,4.5962 -38.321,-6.1829 -53.797,-1.3445 -23.252,7.2692 -72.783,-7.9331 -95.8,0 -8.691,2.9953 -63.793,-3.8644 -71.997,0 -10.204,4.8057 -37.041,35.4905 -47.452,40.0838 -27.66,12.2032 41.375,37.3649 14.552,50.2945 -8.85,4.2657 -16.009,13.33 -25.249,16.7346 -9.599,3.5368 -18.051,11.4355 -27.068,16.8985 -5.312,3.219 -11.67,5.9 -16.475,9.966 -3.45,2.919 -13.283,8.528 -13.957,13.696 -0.506,3.883 -3.267,13.181 5.245,8.925 2.111,-1.055 4.529,-1.901 4.529,-1.901 z" /><g
           id="g289"><g
             clip-path="url(#clipPath295)"
             id="g291"><path
               id="path297"
               style="fill:#1abb1a;fill-opacity:1;fill-rule:evenodd;stroke:none"
               d="m 153.918,135.136 c -0.859,0.859 4.3,4.028 4.673,4.198 5.926,2.709 10.791,7.436 16.523,10.808 24.41,14.362 51.058,20.294 78.715,24.767 19.913,3.221 46.422,-0.359 65.934,-4.648 11.227,-2.467 24.23,-3.135 34.948,-7.19 13.155,-4.978 28.634,-8.157 40.725,-15.523 13.777,-8.394 27.615,-16.34 41.088,-25.316 12.056,-8.032 26.261,-19.642 33.561,-32.4616 5.13,-9.0087 10.395,-17.8824 12.155,-28.4711 0.791,-4.7569 0.76,-10.4433 2.348,-14.8829 4.169,-11.6585 4.578,-28.4465 4.578,-41.0807 0,-2.9493 1.781,-9.5982 0.309,-12.5059 -0.338,-0.6691 -3.63,-0.2001 -4.336,-0.2001 -5.548,0 -10.433,0.7723 -15.748,2.0262 -6.398,1.5094 -13.526,2.3037 -20.048,3.0987 -3.391,0.4134 -6.206,2.4817 -9.365,3.4199 C 426.461,5.1895 406.503,-4.2266 392.984,0 c -20.311,6.35 -63.579,-6.9299 -83.686,0 -7.591,2.6165 -55.726,-3.3758 -62.893,0 -8.913,4.198 -32.357,31.0027 -41.451,35.0151 -24.162,10.6602 36.143,32.6401 12.711,43.9347 -7.73,3.7264 -13.984,11.6445 -22.056,14.6186 -8.385,3.0895 -15.768,9.9896 -23.645,14.7616 -4.64,2.812 -10.194,5.154 -14.391,8.706 -3.014,2.55 -11.604,7.45 -12.192,11.964 -0.442,3.392 -2.855,11.514 4.581,7.796 1.844,-0.922 3.956,-1.66 3.956,-1.66 z" /></g></g><path
           id="path299"
           style="fill:#1abb1a;fill-opacity:0.5;fill-rule:evenodd;stroke:none"
           d="M 13.0726,340.189 C -60.516,471.688 -89.1003,602.531 51.6684,730.91 c -1.4791,0 2.9546,-0.231 4.4091,-0.5 3.1929,-0.589 6.19,-1.746 9.3111,-2.6 8.4195,-2.303 15.9336,-10.099 21.4608,-16.634 4.8624,-5.749 7.7872,-13.35 9.804,-20.641 7.4206,-26.829 11.5176,-29.166 11.5176,-55.187 0,-14.271 -1.656,-30.055 0,-44.118 1.912,-16.236 5.687,-38.084 2.849,-55.024 C 103.425,490.88 85.6589,444.838 65.2526,404.134 55.7476,385.174 47.7488,361.22 28.6778,349.712 26.6346,348.479 15.1512,338.072 12.8942,340.329" /><g
           id="g301"><g
             clip-path="url(#clipPath307)"
             id="g303"><path
               id="path309"
               style="fill:#1abb1a;fill-opacity:1;fill-rule:evenodd;stroke:none"
               d="M 15.4907,376.128 C -48.6922,490.82 -73.6231,604.94 49.1535,716.91 c -1.2901,0 2.5769,-0.201 3.8455,-0.436 2.7848,-0.514 5.3989,-1.523 8.121,-2.268 7.3434,-2.008 13.8971,-8.808 18.7178,-14.507 4.241,-5.015 6.7919,-11.644 8.551,-18.004 6.4722,-23.399 10.0453,-25.438 10.0453,-48.133 0,-12.447 -1.4445,-26.214 0,-38.479 1.6679,-14.16 4.9599,-33.217 2.4849,-47.991 -6.6242,-39.533 -22.1194,-79.69 -39.9176,-115.192 -8.2901,-16.536 -15.2665,-37.429 -31.9,-47.466 -1.782,-1.075 -11.7977,-10.152 -13.7663,-8.183" /></g></g><path
           id="path311"
           style="fill:#1abb1a;fill-opacity:0.5;fill-rule:evenodd;stroke:none"
           d="m 387.473,953.966 c 64.053,-9.378 164.623,-61.338 240.994,-104.038 82.277,-46.003 220.114,-85.99 252.671,-171.98 32.557,-85.99 -19.464,-247 -57.329,-343.96 C 788.374,243.251 722.599,113.705 653.946,96.1887 585.293,78.6722 487.799,197.395 411.891,228.889 343.946,257.08 227.696,226.943 198.5,285.154 c -29.195,58.212 41.758,218.514 38.22,293.003 -2.611,54.943 -60.691,99.261 -59.452,153.933 1.238,54.673 31.849,137.124 66.883,174.103 34.634,36.557 93.495,55.068 143.322,47.773 z" /><g
           id="g313"><g
             clip-path="url(#clipPath319)"
             id="g315"><path
               id="path321"
               style="fill:#1abb1a;fill-opacity:1;fill-rule:evenodd;stroke:none"
               d="m 396,929.072 c 60.333,-8.834 155.064,-57.778 227,-98 77.5,-43.334 207.333,-81 238,-162 30.667,-81 -18.333,-232.667 -54,-324 -33.378,-85.472 -95.333,-207.5 -160,-224 -64.667,-16.5 -156.5,95.333 -228,125 -64,26.554 -173.5,-1.834 -201,53 -27.5,54.833 39.333,205.833 36,276 -2.459,51.754 -57.167,93.5 -56,145 1.167,51.5 30,129.166 63,164 32.623,34.435 88.066,51.871 135,45 z" /></g></g><path
           id="path323"
           style="fill:#616161;fill-opacity:0.25;fill-rule:evenodd;stroke:none"
           d="M 371.5,983.304 C 412.51,994.196 455.582,1000 500,1000 775.958,1000 1000,775.958 1000,500 1000,224.042 775.958,0 500,0 455.582,0 412.51,5.8044 371.5,16.696 585.276,73.468 743,268.46 743,500 743,731.54 585.276,926.532 371.5,983.304 Z" /></g></g></g></svg>