<?xml version="1.0" encoding="UTF-8" standalone="no"?>
<svg
   xmlns:dc="http://purl.org/dc/elements/1.1/"
   xmlns:cc="http://creativecommons.org/ns#"
   xmlns:rdf="http://www.w3.org/1999/02/22-rdf-syntax-ns#"
   xmlns:svg="http://www.w3.org/2000/svg"
   xmlns="http://www.w3.org/2000/svg"
   viewBox="0 0 1333.3333 1333.3333"
   height="1333.3333"
   width="1333.3333"
   xml:space="preserve"
   id="svg646"
   version="1.1"><title
     id="title674">Gas 0</title><metadata
     id="metadata652"><rdf:RDF><cc:Work
         rdf:about=""><dc:format>image/svg+xml</dc:format><dc:type
           rdf:resource="http://purl.org/dc/dcmitype/StillImage" /><dc:title>Gas 0</dc:title></cc:Work></rdf:RDF></metadata><defs
     id="defs650"><clipPath
       id="clipPath664"
       clipPathUnits="userSpaceOnUse"><path
         style="clip-rule:evenodd"
         id="path662"
         d="m 500,1000 c 275.958,0 500,-224.042 500,-500 C 1000,224.042 775.958,0 500,0 224.042,0 0,224.042 0,500 c 0,275.958 224.042,500 500,500 z" /></clipPath></defs><g
     transform="matrix(1.3333333,0,0,-1.3333333,0,1333.3333)"
     id="g654"><path
       id="path656"
       style="fill:#4484ee;fill-opacity:1;fill-rule:evenodd;stroke:none"
       d="m 500,1000 c 275.958,0 500,-224.042 500,-500 C 1000,224.042 775.958,0 500,0 224.042,0 0,224.042 0,500 c 0,275.958 224.042,500 500,500 z" /><g
       id="g658"><g
         clip-path="url(#clipPath664)"
         id="g660"><path
           id="path666"
           style="fill:#000000;fill-opacity:0.09610003;fill-rule:evenodd;stroke:none"
           d="M 84.4991,808.359 C 367.221,760.119 640.43,774.675 909.601,815.881 l -6.268,204.119 -790,-5.83 -28.8336,-205.811" /><path
           id="path668"
           style="fill:#000000;fill-opacity:0.09610003;fill-rule:evenodd;stroke:none"
           d="M 884.499,151.925 C 601.777,207.067 328.569,190.428 59.397,143.326 L 65.6648,-90 855.665,-83.3333 884.499,151.925" /><path
           id="path670"
           style="fill:#000000;fill-opacity:0.09610003;fill-rule:evenodd;stroke:none"
           d="M -15,570.649 -23.8889,436.437 C 324.205,414.975 678.672,418.52 1039.44,446.818 l 2.23,132.729 C 685.58,599.279 333.459,595.717 -15,570.649 Z" /><path
           id="path672"
           style="fill:#ffffff;fill-opacity:0.2;fill-rule:evenodd;stroke:none"
           d="m 800.1,899.037 c 18.666,-14.025 36.569,-29.529 53.551,-46.511 195.129,-195.132 195.129,-511.975 0,-707.107 -195.131,-195.1313 -511.975,-195.1313 -707.106,0 -16.982,16.982 -32.486,34.886 -46.512,53.551 C 295.84,51.8283 575.439,67.3324 753.589,245.482 931.738,423.631 947.242,703.23 800.1,899.037 Z" /></g></g></g></svg>