<?xml version="1.0" encoding="UTF-8" standalone="no"?>
<svg
   xmlns:dc="http://purl.org/dc/elements/1.1/"
   xmlns:cc="http://creativecommons.org/ns#"
   xmlns:rdf="http://www.w3.org/1999/02/22-rdf-syntax-ns#"
   xmlns:svg="http://www.w3.org/2000/svg"
   xmlns="http://www.w3.org/2000/svg"
   viewBox="0 0 1333.3333 1333.3333"
   height="1333.3333"
   width="1333.3333"
   xml:space="preserve"
   id="svg676"
   version="1.1"><title
     id="title734">Gas 1</title><metadata
     id="metadata682"><rdf:RDF><cc:Work
         rdf:about=""><dc:format>image/svg+xml</dc:format><dc:type
           rdf:resource="http://purl.org/dc/dcmitype/StillImage" /><dc:title>Gas 1</dc:title></cc:Work></rdf:RDF></metadata><defs
     id="defs680"><clipPath
       id="clipPath694"
       clipPathUnits="userSpaceOnUse"><path
         style="clip-rule:evenodd"
         id="path692"
         d="m 500,1000 c 275.958,0 500,-224.042 500,-500 C 1000,224.042 775.958,0 500,0 224.042,0 0,224.042 0,500 c 0,275.958 224.042,500 500,500 z" /></clipPath><clipPath
       id="clipPath720"
       clipPathUnits="userSpaceOnUse"><path
         style="clip-rule:evenodd"
         id="path718"
         d="m 500,552.352 c 747.46,0 1354.3,-38.598 1354.3,-86.141 0,-47.542 -606.84,-86.14 -1354.3,-86.14 -747.457,0 -1354.297,38.598 -1354.297,86.14 0,47.543 606.84,86.141 1354.297,86.141 z" /></clipPath></defs><g
     transform="matrix(1.3333333,0,0,-1.3333333,0,1333.3333)"
     id="g684"><path
       id="path686"
       style="fill:#62a8ea;fill-opacity:1;fill-rule:evenodd;stroke:none"
       d="m 500,1000 c 275.958,0 500,-224.042 500,-500 C 1000,224.042 775.958,0 500,0 224.042,0 0,224.042 0,500 c 0,275.958 224.042,500 500,500 z" /><g
       id="g688"><g
         clip-path="url(#clipPath694)"
         id="g690"><path
           id="path696"
           style="fill:#0078e7;fill-opacity:0.67000002;fill-rule:evenodd;stroke:none"
           d="M 505.819,-141.497 C 226.65,-141.497 0,-68.2485 0,21.9737 0,112.196 226.65,185.445 505.819,185.445 c 279.169,0 505.821,-73.249 505.821,-163.4713 0,-90.2222 -226.652,-163.4707 -505.821,-163.4707 z" /><path
           id="path698"
           style="fill:#0031e4;fill-opacity:0.3446;fill-rule:evenodd;stroke:none"
           d="m 500,-163.579 c -275.958,0 -500,66.2906 -500,147.9415 0,81.6509 224.042,147.9415 500,147.9415 275.958,0 500,-66.2906 500,-147.9415 0,-81.6509 -224.042,-147.9415 -500,-147.9415 z" /><path
           id="path700"
           style="fill:#000000;fill-opacity:0.3446;fill-rule:evenodd;stroke:none"
           d="m 500,-258.218 c -275.958,0 -500,66.29 -500,147.941 0,81.6506 224.042,147.9408 500,147.9408 275.958,0 500,-66.2902 500,-147.9408 0,-81.651 -224.042,-147.941 -500,-147.941 z" /><path
           id="path702"
           style="fill:#033aff;fill-opacity:0.3446;fill-rule:evenodd;stroke:none"
           d="m 500,-210.898 c -275.958,0 -500,66.29 -500,147.9406 0,81.6509 224.042,147.9411 500,147.9411 275.958,0 500,-66.2902 500,-147.9411 0,-81.6506 -224.042,-147.9406 -500,-147.9406 z" /><path
           id="path704"
           style="fill:#0078e7;fill-opacity:0.67000002;fill-rule:evenodd;stroke:none"
           d="m 515.456,1105.11 c 279.169,0 505.814,-73.25 505.814,-163.47 0,-90.223 -226.645,-163.472 -505.814,-163.472 -279.169,0 -505.8187,73.249 -505.8187,163.472 0,90.22 226.6497,163.47 505.8187,163.47 z" /><path
           id="path706"
           style="fill:#0031e4;fill-opacity:0.3446;fill-rule:evenodd;stroke:none"
           d="m 521.275,1127.19 c 275.957,0 499.995,-66.29 499.995,-147.939 0,-81.651 -224.038,-147.941 -499.995,-147.941 -275.958,0 -500.0005,66.29 -500.0005,147.941 0,81.649 224.0425,147.939 500.0005,147.939 z" /><path
           id="path708"
           style="fill:#000000;fill-opacity:0.3446;fill-rule:evenodd;stroke:none"
           d="m 521.275,1221.83 c 275.957,0 499.995,-66.29 499.995,-147.94 0,-81.65 -224.038,-147.941 -499.995,-147.941 -275.958,0 -500.0005,66.291 -500.0005,147.941 0,81.65 224.0425,147.94 500.0005,147.94 z" /><path
           id="path710"
           style="fill:#033aff;fill-opacity:0.3446;fill-rule:evenodd;stroke:none"
           d="m 521.275,1174.51 c 275.957,0 499.995,-66.29 499.995,-147.94 0,-81.65 -224.038,-147.94 -499.995,-147.94 -275.958,0 -500.0005,66.29 -500.0005,147.94 0,81.65 224.0425,147.94 500.0005,147.94 z" /><path
           id="path712"
           style="fill:#0071da;fill-opacity:0.23030001;fill-rule:evenodd;stroke:none"
           d="m 500,552.352 c 747.46,0 1354.3,-38.598 1354.3,-86.141 0,-47.542 -606.84,-86.14 -1354.3,-86.14 -747.457,0 -1354.297,38.598 -1354.297,86.14 0,47.543 606.84,86.141 1354.297,86.141 z" /><g
           id="g714"><g
             clip-path="url(#clipPath720)"
             id="g716"><path
               id="path722"
               style="fill:#0059ac;fill-opacity:0.23030001;fill-rule:evenodd;stroke:none"
               d="m 500,612.141 c 747.46,0 1354.3,-38.599 1354.3,-86.141 0,-47.542 -606.84,-86.141 -1354.3,-86.141 -747.457,0 -1354.297,38.599 -1354.297,86.141 0,47.542 606.84,86.141 1354.297,86.141 z" /></g></g><path
           id="path724"
           style="fill:#0b5ba6;fill-opacity:0.3446;fill-rule:evenodd;stroke:none"
           d="m 759.552,325.787 c 21.124,0 38.273,-17.956 38.273,-40.073 0,-22.116 -17.149,-40.072 -38.273,-40.072 -21.123,0 -38.272,17.956 -38.272,40.072 0,22.117 17.149,40.073 38.272,40.073 z" /><path
           id="path726"
           style="fill:#0078e7;fill-opacity:0.3446;fill-rule:evenodd;stroke:none"
           d="m 794.401,258.005 c 396.729,-50.932 688.209,-218.9305 688.209,-418.087 0,-7.139 -0.37,-14.238 -1.11,-21.294 -24.1,229.6096 -435.84,412.62 -939.5,412.62 -39.6,0 -78.632,-1.131 -116.952,-3.328 -25.12,-16.108 -73.204,-30.054 -129.212,-35.659 -47.528,-4.757 -90.653,-2.495 -119.619,4.904 -324.239,-63.269 -555.821,-208.0586 -573.714,-378.537 -0.741,7.056 -1.116,14.155 -1.116,21.294 0,173.4224 221.02,323.219 540.095,392.665 12.909,21.924 72.371,43.341 145.251,50.635 61.267,6.132 115.218,0.601 140.954,-12.565 37.472,2.099 75.621,3.179 114.313,3.179 58.684,0 116.119,-2.485 171.839,-7.238 7.091,-17.265 23.488,-29.367 42.564,-29.367 15.723,0 29.625,8.221 37.998,20.778 z m -507.556,1.287 c 49.273,4.464 90.018,-0.097 90.932,-10.181 0.914,-10.084 -38.348,-21.895 -87.622,-26.36 -49.273,-4.465 -90.018,0.097 -90.932,10.181 -0.914,10.084 38.348,21.895 87.622,26.36 z" /><path
           id="path728"
           style="fill:#000000;fill-opacity:0.1;fill-rule:evenodd;stroke:none"
           d="M 428.559,994.925 C 451.894,998.269 475.746,1000 500,1000 775.958,1000 1000,775.958 1000,500 1000,224.042 775.958,0 500,0 475.746,0 451.894,1.7306 428.559,5.075 670.727,39.783 857.118,248.296 857.118,500 c 0,251.704 -186.391,460.217 -428.559,494.925 z" /><path
           id="path730"
           style="fill:#0078e7;fill-opacity:0.67000002;fill-rule:evenodd;stroke:none"
           d="m 240.48,727.592 c 70.394,-11.072 124.245,-41.045 120.18,-66.891 -4.065,-25.846 -64.517,-37.84 -134.912,-26.768 -70.394,11.072 -124.245,41.045 -120.18,66.891 4.065,25.846 64.517,37.84 134.912,26.768 z" /><path
           id="path732"
           style="fill:#0078e7;fill-opacity:0.67000002;fill-rule:evenodd;stroke:none"
           d="m 388.223,676.093 c 68.541,-6.081 139.695,-9.283 212.664,-9.283 536.473,0 974.793,173.114 998.493,390 0.67,-6.13 1.01,-12.3 1.01,-18.5 0,-225.458 -447.86,-408.5 -999.503,-408.5 -75.095,0 -148.267,3.392 -218.648,9.822 6.341,4.905 10.267,10.624 11.279,17.06 0.997,6.339 -0.909,12.884 -5.295,19.401 z M 91.8851,686.749 c -293.5521,71.196 -490.4981,202.052 -490.4981,351.561 0,6.2 0.339,12.37 1.009,18.5 15.62,-142.939 211.329,-266.865 496.5353,-334.754 -6.4651,-4.941 -10.4666,-10.716 -11.49,-17.222 -0.9299,-5.912 0.6659,-12.005 4.4438,-18.085 z" /></g></g></g></svg>